<svg id="svg" version="1.1" width="400" height="400" viewBox="0 0 400 400" xmlns="http://www.w3.org/2000/svg" xmlns:xlink="http://www.w3.org/1999/xlink" ><g id="svgg"><path id="path0" d="M220.901 190.100 L 219.614 191.000 219.620 197.200 C 219.628 204.398,220.464 206.687,223.027 206.526 C 223.672 206.486,226.990 206.266,230.400 206.039 C 233.810 205.811,241.736 205.619,248.014 205.613 L 259.428 205.600 260.114 204.438 C 261.080 202.803,261.130 191.449,260.177 190.089 L 259.555 189.200 240.872 189.200 L 222.189 189.200 220.901 190.100 " stroke="none" fill="#8d1c82" fill-rule="evenodd"></path><path id="path1" d="M218.692 187.768 C 217.423 188.290,215.758 189.195,214.992 189.779 L 213.600 190.841 213.600 197.787 C 213.600 207.057,214.817 209.904,219.675 211.994 C 222.466 213.195,232.406 212.370,239.400 210.357 C 243.169 209.273,250.105 208.408,255.069 208.404 C 261.904 208.398,263.200 206.605,263.200 197.163 C 263.200 186.247,264.426 186.797,240.138 186.809 L 221.000 186.819 218.692 187.768 M260.177 190.089 C 261.130 191.449,261.080 202.803,260.114 204.438 L 259.428 205.600 248.014 205.613 C 241.736 205.619,233.810 205.811,230.400 206.039 C 226.990 206.266,223.672 206.486,223.027 206.526 C 220.464 206.687,219.628 204.398,219.620 197.200 L 219.614 191.000 220.901 190.100 L 222.189 189.200 240.872 189.200 L 259.555 189.200 260.177 190.089 " stroke="none" fill="#9b5197" fill-rule="evenodd"></path><path id="path2" d="" stroke="none" fill="#5555ff" fill-rule="evenodd"></path><path id="path3" d="M220.526 114.247 L 219.200 115.494 219.200 128.366 L 219.200 141.238 220.627 143.470 L 222.055 145.701 231.127 145.431 C 251.704 144.819,250.000 146.341,250.000 128.573 L 250.000 115.654 248.800 114.800 C 248.140 114.330,247.600 113.689,247.600 113.375 C 247.600 112.891,245.650 112.820,234.726 112.903 L 221.852 113.000 220.526 114.247 " stroke="none" fill="#00a04f" fill-rule="evenodd"></path><path id="path4" d="M249.800 112.800 C 250.893 113.269,251.200 113.269,251.200 112.800 C 251.200 112.580,250.705 112.413,250.100 112.428 C 249.125 112.453,249.091 112.495,249.800 112.800 M215.647 146.300 C 215.620 147.732,215.771 148.800,216.000 148.800 C 216.455 148.800,216.455 146.787,216.000 145.000 C 215.757 144.045,215.685 144.310,215.647 146.300 M217.326 184.252 C 216.292 185.271,214.181 186.711,212.635 187.452 L 209.823 188.800 203.386 188.800 L 196.950 188.800 195.875 189.922 L 194.800 191.044 194.802 224.622 C 194.804 262.952,194.900 265.785,196.222 266.651 C 197.249 267.324,204.043 266.407,205.200 265.439 C 208.218 262.914,213.258 261.784,225.000 261.001 C 229.100 260.727,235.188 259.708,235.810 259.191 C 238.128 257.268,245.718 255.642,255.484 254.977 C 261.583 254.562,260.976 257.112,261.133 231.260 L 261.266 209.403 263.433 207.131 L 265.600 204.859 265.591 197.530 C 265.581 188.840,265.276 187.814,261.723 184.500 L 259.472 182.400 239.338 182.400 L 219.205 182.400 217.326 184.252 M260.410 187.607 C 262.873 189.361,263.200 190.481,263.200 197.163 C 263.200 206.605,261.904 208.398,255.069 208.404 C 250.105 208.408,243.169 209.273,239.400 210.357 C 232.406 212.370,222.466 213.195,219.675 211.994 C 214.817 209.904,213.600 207.057,213.600 197.787 L 213.600 190.841 214.992 189.779 C 215.758 189.195,217.423 188.290,218.692 187.768 L 221.000 186.819 240.138 186.809 C 258.700 186.800,259.311 186.824,260.410 187.607 " stroke="none" fill="#7a868e" fill-rule="evenodd"></path><path id="path5" d="M157.600 104.678 C 156.830 104.761,154.130 105.172,151.600 105.593 C 145.556 106.598,138.132 107.079,120.400 107.616 C 112.370 107.859,105.080 108.186,104.200 108.342 L 102.600 108.625 102.479 143.413 C 102.351 179.915,102.438 182.104,104.027 182.608 C 104.454 182.744,105.314 183.284,105.937 183.808 C 107.556 185.171,110.500 185.541,123.400 186.006 C 143.425 186.726,155.743 188.434,158.180 190.827 C 160.518 193.123,160.778 188.216,161.423 129.469 L 161.647 109.138 160.553 106.769 C 159.952 105.466,159.356 104.429,159.230 104.464 C 159.103 104.499,158.370 104.596,157.600 104.678 " stroke="none" fill="#ee2c35" fill-rule="evenodd"></path><path id="path6" d="M218.857 112.847 L 215.600 115.680 215.600 129.233 C 215.600 138.154,215.769 143.768,216.093 145.661 C 216.450 147.742,216.464 148.579,216.144 148.685 C 215.856 148.781,216.028 149.625,216.642 151.116 C 217.559 153.346,217.581 153.698,217.586 166.000 L 217.590 178.600 216.612 180.311 C 215.359 182.503,215.585 183.142,217.520 182.881 C 218.334 182.771,228.117 182.614,239.259 182.533 L 259.519 182.386 261.900 184.693 C 265.471 188.153,265.705 189.039,265.537 198.466 L 265.400 206.220 268.141 205.539 C 269.648 205.164,273.143 204.566,275.906 204.210 C 278.669 203.853,282.206 203.214,283.765 202.789 C 286.097 202.154,296.301 200.000,296.979 200.000 C 297.085 200.000,297.628 199.328,298.186 198.507 L 299.200 197.014 299.200 159.600 L 299.200 122.186 298.227 120.754 L 297.254 119.322 291.327 118.410 C 288.067 117.907,283.780 117.152,281.800 116.732 C 274.991 115.285,271.950 114.923,250.330 112.984 C 247.500 112.730,246.980 113.312,248.743 114.761 L 250.007 115.800 250.004 128.646 C 249.999 146.329,251.696 144.819,231.127 145.431 L 222.055 145.701 220.627 143.470 L 219.200 141.238 219.200 128.363 L 219.200 115.487 220.509 114.264 L 221.817 113.042 229.464 113.154 C 237.293 113.269,240.336 112.730,234.426 112.274 C 232.694 112.140,230.405 111.833,229.339 111.591 C 226.803 111.015,224.454 110.498,223.157 110.229 C 222.293 110.050,221.557 110.498,218.857 112.847 " stroke="none" fill="#40ade2" fill-rule="evenodd"></path><path id="path7" d="M151.452 100.655 C 148.469 102.017,147.937 102.120,141.252 102.636 C 137.374 102.935,131.410 103.444,128.000 103.768 C 124.590 104.092,120.000 104.463,117.800 104.592 C 105.528 105.316,102.886 105.856,101.441 107.940 L 100.375 109.479 100.502 145.039 C 100.658 188.686,100.216 185.784,106.857 186.739 C 108.696 187.003,114.129 187.488,118.932 187.816 C 128.179 188.449,135.317 189.271,139.600 190.196 C 145.254 191.417,148.647 191.882,157.200 192.606 C 162.639 193.067,162.800 192.423,162.800 170.190 L 162.800 153.689 163.885 150.145 L 164.970 146.600 165.114 128.213 C 165.266 108.806,165.006 104.409,163.569 102.046 C 161.554 98.732,156.845 98.192,151.452 100.655 M160.553 106.769 L 161.647 109.138 161.423 129.469 C 160.778 188.216,160.518 193.123,158.180 190.827 C 155.743 188.434,143.425 186.726,123.400 186.006 C 110.500 185.541,107.556 185.171,105.937 183.808 C 105.314 183.284,104.454 182.744,104.027 182.608 C 102.438 182.104,102.351 179.915,102.479 143.413 L 102.600 108.625 104.200 108.342 C 105.080 108.186,112.370 107.859,120.400 107.616 C 138.132 107.079,145.556 106.598,151.600 105.593 C 154.130 105.172,156.830 104.761,157.600 104.678 C 158.370 104.596,159.103 104.499,159.230 104.464 C 159.356 104.429,159.952 105.466,160.553 106.769 M180.900 283.652 L 178.400 284.429 178.400 303.652 C 178.400 329.810,178.050 328.778,187.414 330.204 C 191.572 330.838,194.101 331.811,196.063 333.533 C 197.568 334.855,199.568 335.307,209.600 336.596 C 215.073 337.299,218.077 338.379,219.837 340.277 C 221.971 342.577,225.590 341.760,227.037 338.651 L 227.992 336.600 227.996 313.714 L 228.000 290.828 227.100 290.356 C 226.605 290.096,225.390 289.213,224.400 288.394 C 220.057 284.801,215.419 283.863,198.800 283.219 C 185.159 282.690,183.898 282.720,180.900 283.652 " stroke="none" fill="#f36f20" fill-rule="evenodd"></path><path id="path8" d="M219.307 105.622 C 211.559 107.151,210.886 109.307,210.668 133.300 C 210.505 151.190,210.161 149.437,213.744 148.946 L 215.600 148.691 215.600 132.204 L 215.600 115.716 218.300 113.355 C 219.785 112.056,221.270 110.785,221.600 110.531 C 222.221 110.053,222.543 110.092,228.400 111.346 C 233.792 112.500,251.600 113.424,251.600 112.549 C 251.600 112.521,251.330 111.851,251.000 111.062 C 250.670 110.272,250.400 109.008,250.400 108.252 C 250.400 106.246,248.162 105.387,247.501 107.138 L 247.077 108.262 241.701 107.151 C 233.718 105.502,223.462 104.802,219.307 105.622 M214.200 183.437 C 211.104 186.038,209.747 186.400,203.102 186.400 C 196.252 186.400,196.021 186.473,193.972 189.302 L 192.800 190.920 192.804 227.160 C 192.807 247.092,192.924 264.096,193.064 264.947 C 193.434 267.185,196.181 268.927,198.795 268.582 C 204.658 267.807,208.314 267.008,212.400 265.609 C 217.266 263.943,221.142 263.146,228.000 262.402 C 233.735 261.780,239.359 260.652,242.000 259.594 C 244.088 258.757,256.151 256.430,258.506 256.409 C 259.198 256.404,260.171 255.888,261.106 255.031 L 262.600 253.663 262.850 231.731 C 263.138 206.377,262.953 209.612,264.200 208.162 C 266.167 205.875,265.393 205.240,263.232 207.368 L 261.264 209.306 261.132 231.212 C 260.976 257.119,261.584 254.562,255.484 254.977 C 245.718 255.642,238.128 257.268,235.810 259.191 C 235.188 259.708,229.100 260.727,225.000 261.001 C 213.258 261.784,208.218 262.914,205.200 265.439 C 204.043 266.407,197.249 267.324,196.222 266.651 C 194.900 265.785,194.804 262.952,194.802 224.622 L 194.800 191.044 195.875 189.922 L 196.950 188.800 203.386 188.800 L 209.823 188.800 212.611 187.460 C 216.724 185.483,219.549 182.471,216.792 183.002 C 216.356 183.085,216.000 182.984,216.000 182.777 C 216.000 182.170,215.482 182.360,214.200 183.437 " stroke="none" fill="#b2a741" fill-rule="evenodd"></path><path id="path9" d="M234.200 57.416 C 231.340 57.695,227.020 58.113,224.600 58.346 C 222.180 58.579,217.826 59.222,214.924 59.776 C 208.513 60.998,200.961 61.790,188.000 62.600 C 164.666 64.058,154.038 66.147,151.656 69.745 L 150.600 71.340 150.400 84.326 L 150.200 97.313 148.790 98.454 L 147.379 99.595 138.190 99.999 C 118.259 100.876,109.595 101.597,107.000 102.594 C 105.680 103.102,104.134 103.621,103.565 103.750 C 102.046 104.091,100.488 105.460,99.572 107.256 C 98.440 109.474,98.519 182.342,99.656 184.843 C 101.198 188.237,102.310 188.612,112.600 189.209 C 120.662 189.676,126.489 190.471,134.034 192.132 C 143.099 194.127,158.907 195.390,161.019 194.288 C 164.919 192.252,165.190 190.603,165.202 168.800 C 165.213 150.576,164.997 151.899,168.141 150.737 C 170.541 149.850,171.071 149.823,190.267 149.614 C 201.084 149.496,210.069 149.265,210.234 149.099 C 210.399 148.934,210.597 141.734,210.673 133.099 C 210.873 110.383,211.447 108.141,217.598 106.049 C 221.447 104.740,232.452 105.241,241.669 107.145 L 247.077 108.262 247.505 107.128 C 247.892 106.102,248.034 106.033,249.000 106.400 C 249.587 106.623,250.232 106.704,250.434 106.579 C 250.871 106.309,250.930 59.603,250.494 58.981 C 248.883 56.682,245.277 56.336,234.200 57.416 M161.504 99.998 C 164.978 102.116,165.299 104.625,165.114 128.213 L 164.970 146.600 163.885 150.145 L 162.800 153.689 162.800 170.190 C 162.800 192.423,162.639 193.067,157.200 192.606 C 148.647 191.882,145.254 191.417,139.600 190.196 C 135.317 189.271,128.179 188.449,118.932 187.816 C 114.129 187.488,108.696 187.003,106.857 186.739 C 100.216 185.784,100.658 188.686,100.502 145.039 L 100.375 109.479 101.441 107.940 C 102.886 105.856,105.528 105.316,117.800 104.592 C 120.000 104.463,124.590 104.092,128.000 103.768 C 131.410 103.444,137.374 102.935,141.252 102.636 C 147.937 102.120,148.469 102.017,151.452 100.655 C 155.306 98.894,159.269 98.635,161.504 99.998 M182.400 278.467 C 178.028 279.411,177.595 279.613,176.389 281.278 L 175.200 282.920 175.200 305.913 L 175.200 328.906 176.528 330.153 C 177.455 331.024,179.115 331.809,182.028 332.756 C 184.323 333.502,187.100 334.611,188.200 335.221 C 191.183 336.874,193.361 337.485,199.467 338.378 C 205.432 339.250,207.312 339.693,209.800 340.810 C 218.140 344.556,226.751 345.288,229.978 342.526 L 231.600 341.138 231.600 315.831 C 231.600 280.039,232.729 281.940,210.800 280.798 C 201.257 280.301,195.310 279.777,190.000 278.964 C 187.910 278.644,185.750 278.314,185.200 278.230 C 184.650 278.146,183.390 278.253,182.400 278.467 M198.800 283.219 C 215.419 283.863,220.057 284.801,224.400 288.394 C 225.390 289.213,226.605 290.096,227.100 290.356 L 228.000 290.828 227.996 313.714 L 227.992 336.600 227.037 338.651 C 225.590 341.760,221.971 342.577,219.837 340.277 C 218.077 338.379,215.073 337.299,209.600 336.596 C 199.568 335.307,197.568 334.855,196.063 333.533 C 194.101 331.811,191.572 330.838,187.414 330.204 C 178.050 328.778,178.400 329.810,178.400 303.652 L 178.400 284.429 180.900 283.652 C 183.898 282.720,185.159 282.690,198.800 283.219 " stroke="none" fill="#f99d1a" fill-rule="evenodd"></path><path id="path10" d="M148.114 1.800 C 148.117 2.900,148.195 3.303,148.287 2.695 C 148.379 2.086,148.377 1.186,148.282 0.695 C 148.187 0.203,148.111 0.700,148.114 1.800 M252.114 1.800 C 252.117 2.900,252.195 3.303,252.287 2.695 C 252.379 2.086,252.377 1.186,252.282 0.695 C 252.187 0.203,252.111 0.700,252.114 1.800 M317.796 29.607 C 317.658 29.830,317.332 29.895,317.072 29.750 C 316.813 29.606,316.914 29.820,317.297 30.227 C 317.859 30.823,318.092 30.868,318.497 30.459 C 318.902 30.051,318.844 30.011,318.200 30.251 C 317.489 30.516,317.461 30.474,317.949 29.875 C 318.251 29.504,318.397 29.200,318.273 29.200 C 318.149 29.200,317.934 29.383,317.796 29.607 M319.776 32.038 C 319.627 32.279,319.794 32.732,320.148 33.043 C 320.501 33.355,320.704 33.489,320.599 33.342 C 320.493 33.194,320.630 32.787,320.903 32.437 C 321.352 31.861,321.325 31.858,320.625 32.400 C 319.921 32.945,319.874 32.936,320.113 32.300 C 320.404 31.521,320.196 31.359,319.776 32.038 M59.632 49.567 C 59.650 50.183,59.753 50.358,59.885 50.000 C 60.007 49.670,60.260 49.205,60.447 48.967 C 60.659 48.698,60.562 48.533,60.194 48.533 C 59.814 48.533,59.611 48.906,59.632 49.567 M339.953 48.967 C 340.140 49.205,340.393 49.670,340.515 50.000 C 340.647 50.358,340.750 50.183,340.768 49.567 C 340.789 48.906,340.586 48.533,340.206 48.533 C 339.838 48.533,339.741 48.698,339.953 48.967 M250.650 106.050 C 249.372 112.442,250.586 113.271,262.600 114.207 C 271.711 114.917,275.657 115.436,281.800 116.735 C 283.780 117.154,288.067 117.907,291.327 118.410 L 297.254 119.322 298.227 120.754 L 299.200 122.186 299.200 159.600 L 299.200 197.014 298.186 198.507 C 297.628 199.328,297.085 200.000,296.979 200.000 C 296.305 200.000,286.103 202.152,283.791 202.782 C 282.245 203.203,278.825 203.829,276.191 204.173 C 268.171 205.218,265.712 205.887,264.912 207.240 C 264.536 207.878,264.106 208.400,263.957 208.400 C 263.202 208.400,263.054 211.489,262.836 231.731 L 262.600 253.663 261.106 255.031 C 260.171 255.888,259.198 256.404,258.506 256.409 C 256.151 256.430,244.088 258.757,242.000 259.594 C 239.359 260.652,233.735 261.780,228.000 262.402 C 221.142 263.146,217.266 263.943,212.400 265.609 C 208.314 267.008,204.658 267.807,198.795 268.582 C 196.181 268.927,193.434 267.185,193.064 264.947 C 192.924 264.096,192.807 247.092,192.804 227.160 L 192.800 190.920 193.972 189.302 C 196.021 186.473,196.252 186.400,203.105 186.400 C 210.957 186.400,213.833 185.154,216.430 180.627 L 217.592 178.600 217.596 166.115 C 217.601 149.345,217.373 148.592,212.429 149.052 C 209.170 149.355,208.860 149.883,210.600 152.164 L 211.600 153.476 211.600 165.816 L 211.600 178.157 210.546 179.678 L 209.491 181.200 203.046 181.203 C 197.587 181.205,196.439 181.312,195.550 181.903 C 194.551 182.566,191.600 186.122,191.600 186.662 C 191.600 186.802,190.790 187.783,189.800 188.841 L 188.000 190.766 188.018 225.483 C 188.037 263.962,188.113 265.631,189.931 267.255 C 190.593 267.846,191.334 268.702,191.577 269.157 C 193.576 272.892,217.339 270.945,223.066 266.577 C 224.689 265.339,226.757 264.974,235.400 264.398 C 246.018 263.691,250.716 262.681,253.569 260.492 C 255.042 259.362,258.021 258.446,260.320 258.417 C 265.582 258.349,266.031 256.091,266.257 228.562 L 266.415 209.324 268.507 208.886 C 269.658 208.645,273.840 208.336,277.800 208.200 C 296.308 207.561,299.228 206.658,301.468 200.876 C 302.321 198.675,302.829 125.304,302.022 120.936 C 300.977 115.282,298.702 113.120,292.882 112.249 C 288.226 111.552,274.188 110.807,265.635 110.803 C 262.282 110.801,258.956 110.548,256.769 110.129 L 253.270 109.458 253.003 107.678 C 252.518 104.445,251.159 103.505,250.650 106.050 M5.200 131.133 C 5.200 131.390,4.885 131.603,4.500 131.606 C 3.908 131.611,3.892 131.670,4.394 131.988 C 5.002 132.372,5.935 131.402,5.437 130.903 C 5.306 130.773,5.200 130.877,5.200 131.133 M394.838 131.000 C 394.785 131.835,395.413 132.363,396.011 131.985 C 396.512 131.668,396.501 131.611,395.933 131.606 C 395.567 131.603,395.176 131.375,395.065 131.100 C 394.954 130.825,394.852 130.780,394.838 131.000 M0.905 148.687 C 1.514 148.779,2.414 148.777,2.905 148.682 C 3.397 148.587,2.900 148.511,1.800 148.514 C 0.700 148.517,0.297 148.595,0.905 148.687 M397.500 149.082 C 397.995 149.178,398.805 149.178,399.300 149.082 C 399.795 148.987,399.390 148.909,398.400 148.909 C 397.410 148.909,397.005 148.987,397.500 149.082 M0.905 251.487 C 1.514 251.579,2.414 251.577,2.905 251.482 C 3.397 251.387,2.900 251.311,1.800 251.314 C 0.700 251.317,0.297 251.395,0.905 251.487 M29.859 317.113 C 29.933 317.230,29.770 317.613,29.497 317.963 C 29.048 318.539,29.075 318.542,29.775 318.000 C 30.491 317.446,30.527 317.461,30.251 318.200 C 30.011 318.844,30.051 318.902,30.459 318.497 C 30.868 318.092,30.846 317.888,30.345 317.447 C 30.004 317.146,29.785 316.996,29.859 317.113 M369.986 317.417 C 369.584 317.901,369.578 318.138,369.961 318.517 C 370.342 318.896,370.383 318.827,370.149 318.200 C 369.873 317.461,369.909 317.446,370.625 318.000 C 371.325 318.542,371.352 318.539,370.903 317.963 C 370.630 317.613,370.525 317.208,370.670 317.063 C 370.815 316.918,370.835 316.800,370.716 316.800 C 370.596 316.800,370.268 317.078,369.986 317.417 M31.803 319.995 C 31.656 320.233,31.846 320.283,32.279 320.121 C 32.937 319.874,32.948 319.918,32.400 320.625 C 31.858 321.325,31.861 321.352,32.437 320.903 C 32.787 320.630,33.231 320.540,33.424 320.703 C 33.616 320.867,33.533 320.685,33.238 320.300 C 32.635 319.512,32.163 319.412,31.803 319.995 M367.162 320.300 C 366.867 320.685,366.784 320.867,366.976 320.703 C 367.169 320.540,367.613 320.630,367.963 320.903 C 368.539 321.352,368.542 321.325,368.000 320.625 C 367.452 319.918,367.463 319.874,368.121 320.121 C 368.554 320.283,368.744 320.233,368.597 319.995 C 368.237 319.412,367.765 319.512,367.162 320.300 M59.632 350.833 C 59.611 351.494,59.814 351.867,60.194 351.867 C 60.562 351.867,60.659 351.702,60.447 351.433 C 60.260 351.195,60.007 350.730,59.885 350.400 C 59.753 350.042,59.650 350.217,59.632 350.833 M340.169 350.936 C 339.834 351.659,339.857 351.867,340.269 351.867 C 340.561 351.867,340.800 351.447,340.800 350.933 C 340.800 349.769,340.710 349.770,340.169 350.936 M319.986 367.417 C 319.584 367.901,319.578 368.138,319.961 368.517 C 320.342 368.896,320.383 368.827,320.149 368.200 C 319.873 367.461,319.909 367.446,320.625 368.000 C 321.325 368.542,321.352 368.539,320.903 367.963 C 320.630 367.613,320.525 367.208,320.670 367.063 C 320.815 366.918,320.835 366.800,320.716 366.800 C 320.596 366.800,320.268 367.078,319.986 367.417 M317.162 370.300 C 316.867 370.685,316.784 370.867,316.976 370.703 C 317.169 370.540,317.613 370.630,317.963 370.903 C 318.539 371.352,318.542 371.325,318.000 370.625 C 317.452 369.918,317.463 369.874,318.121 370.121 C 318.554 370.283,318.744 370.233,318.597 369.995 C 318.237 369.412,317.765 369.512,317.162 370.300 M148.109 398.400 C 148.109 399.390,148.187 399.795,148.282 399.300 C 148.378 398.805,148.378 397.995,148.282 397.500 C 148.187 397.005,148.109 397.410,148.109 398.400 M252.109 398.400 C 252.109 399.390,252.187 399.795,252.282 399.300 C 252.378 398.805,252.378 397.995,252.282 397.500 C 252.187 397.005,252.109 397.410,252.109 398.400 " stroke="none" fill="#b1dbf2" fill-rule="evenodd"></path><path id="path11" d="" stroke="none" fill="#00ffff" fill-rule="evenodd"></path><path id="path12" d="M99.581 18.623 C 99.154 19.137,99.163 19.224,99.632 19.123 C 99.951 19.054,100.146 19.249,100.077 19.568 C 99.976 20.037,100.063 20.046,100.577 19.619 C 101.330 18.994,101.369 18.766,100.700 18.900 C 100.425 18.955,100.245 18.775,100.300 18.500 C 100.434 17.831,100.206 17.870,99.581 18.623 M300.100 18.500 C 300.155 18.775,299.945 18.945,299.632 18.877 C 299.163 18.776,299.154 18.863,299.581 19.377 C 300.206 20.130,300.434 20.169,300.300 19.500 C 300.245 19.225,300.455 19.055,300.768 19.123 C 301.237 19.224,301.246 19.137,300.819 18.623 C 300.194 17.870,299.966 17.831,300.100 18.500 M18.381 99.823 C 17.954 100.337,17.963 100.424,18.432 100.323 C 18.751 100.254,18.946 100.449,18.877 100.768 C 18.776 101.237,18.863 101.246,19.377 100.819 C 20.130 100.194,20.169 99.966,19.500 100.100 C 19.225 100.155,19.045 99.975,19.100 99.700 C 19.234 99.031,19.006 99.070,18.381 99.823 M381.300 99.700 C 381.355 99.975,381.145 100.145,380.832 100.077 C 380.363 99.976,380.354 100.063,380.781 100.577 C 381.406 101.330,381.634 101.369,381.500 100.700 C 381.445 100.425,381.655 100.255,381.968 100.323 C 382.437 100.424,382.446 100.337,382.019 99.823 C 381.394 99.070,381.166 99.031,381.300 99.700 M18.900 299.700 C 18.955 299.975,18.745 300.145,18.432 300.077 C 17.963 299.976,17.954 300.063,18.381 300.577 C 19.006 301.330,19.234 301.369,19.100 300.700 C 19.045 300.425,19.255 300.255,19.568 300.323 C 20.037 300.424,20.046 300.337,19.619 299.823 C 18.994 299.070,18.766 299.031,18.900 299.700 M100.100 380.900 C 100.155 381.175,99.945 381.345,99.632 381.277 C 99.163 381.176,99.154 381.263,99.581 381.777 C 100.206 382.530,100.434 382.569,100.300 381.900 C 100.245 381.625,100.455 381.455,100.768 381.523 C 101.237 381.624,101.246 381.537,100.819 381.023 C 100.194 380.270,99.966 380.231,100.100 380.900 M299.581 381.023 C 299.154 381.537,299.163 381.624,299.632 381.523 C 299.951 381.454,300.146 381.649,300.077 381.968 C 299.976 382.437,300.063 382.446,300.577 382.019 C 301.330 381.394,301.369 381.166,300.700 381.300 C 300.425 381.355,300.245 381.175,300.300 380.900 C 300.434 380.231,300.206 380.270,299.581 381.023 " stroke="none" fill="#99ffff" fill-rule="evenodd"></path><path id="path13" d="M147.200 1.800 L 147.200 3.600 144.300 3.635 C 142.705 3.654,138.754 3.699,135.521 3.735 C 128.713 3.810,128.723 3.805,128.478 7.194 L 128.304 9.600 126.252 9.646 C 125.123 9.671,123.124 9.681,121.810 9.668 C 120.369 9.654,119.299 9.834,119.116 10.122 C 118.885 10.486,118.811 10.481,118.806 10.100 C 118.803 9.825,118.440 9.600,118.000 9.600 C 117.475 9.600,117.200 9.867,117.200 10.376 C 117.200 10.803,117.046 11.248,116.858 11.364 C 116.670 11.481,116.599 11.139,116.701 10.606 C 116.877 9.688,116.805 9.648,115.343 9.855 C 111.249 10.434,110.000 11.620,110.000 14.927 C 110.000 16.274,109.992 16.279,108.340 16.114 C 107.248 16.005,106.565 16.128,106.346 16.474 C 106.092 16.874,106.011 16.880,106.006 16.500 C 105.992 15.352,103.603 15.934,103.546 17.100 C 103.495 18.112,103.477 18.125,103.311 17.252 C 103.082 16.041,100.008 16.214,98.711 17.511 C 97.431 18.791,97.219 22.000,98.415 22.000 C 98.920 22.000,99.224 22.109,99.090 22.243 C 98.956 22.377,97.769 22.471,96.451 22.453 C 94.501 22.425,94.021 22.548,93.874 23.110 C 93.705 23.755,93.690 23.755,93.646 23.100 C 93.616 22.638,93.269 22.400,92.627 22.400 C 91.458 22.400,91.096 23.296,91.251 25.808 C 91.406 28.331,91.186 28.430,85.274 28.520 C 78.884 28.617,78.647 28.759,78.619 32.496 L 78.600 35.000 76.200 34.889 C 72.919 34.737,72.639 35.002,72.400 38.485 L 72.200 41.400 69.200 41.400 L 66.200 41.400 66.200 44.000 C 66.200 47.191,65.811 47.508,62.130 47.309 C 59.837 47.186,59.534 47.251,59.751 47.817 C 59.888 48.173,60.000 48.551,60.000 48.656 C 60.000 48.761,60.163 48.746,60.363 48.623 C 60.562 48.500,60.517 48.847,60.263 49.394 L 59.800 50.389 59.675 49.195 C 59.530 47.813,59.580 47.831,57.854 48.552 C 56.355 49.178,54.800 50.952,54.800 52.036 C 54.800 52.977,52.977 54.800,52.036 54.800 C 50.952 54.800,49.178 56.355,48.552 57.854 C 47.862 59.505,47.864 59.600,48.600 59.600 C 49.310 59.600,49.394 60.233,48.738 60.638 C 48.470 60.804,48.384 60.749,48.534 60.507 C 48.675 60.278,48.447 60.001,48.027 59.891 C 47.327 59.708,47.270 59.908,47.351 62.279 C 47.469 65.713,47.146 66.084,43.970 66.148 L 41.400 66.200 41.283 69.300 L 41.166 72.400 38.612 72.400 C 35.316 72.400,34.800 72.884,34.800 75.973 L 34.800 78.289 32.347 78.511 C 28.735 78.839,28.619 79.042,28.498 85.276 C 28.386 91.014,28.200 91.549,26.408 91.286 C 25.681 91.180,25.200 91.287,25.200 91.555 C 25.200 91.800,25.009 92.000,24.776 92.000 C 24.543 92.000,24.464 91.820,24.600 91.600 C 24.875 91.155,24.009 91.068,23.033 91.443 C 22.167 91.775,22.218 93.494,23.100 93.724 C 23.753 93.895,23.754 93.910,23.109 93.954 C 22.532 93.992,22.424 94.398,22.453 96.423 C 22.471 97.756,22.377 98.956,22.243 99.090 C 22.109 99.224,22.000 98.920,22.000 98.415 C 22.000 97.219,18.791 97.431,17.511 98.711 C 16.214 100.008,16.041 103.082,17.252 103.311 C 18.125 103.477,18.112 103.495,17.100 103.546 C 15.934 103.603,15.352 105.992,16.500 106.006 C 16.880 106.011,16.874 106.092,16.474 106.346 C 16.128 106.565,16.005 107.248,16.114 108.340 C 16.274 109.941,16.239 110.000,15.127 110.000 C 13.129 110.000,11.220 111.054,10.625 112.486 C 9.737 114.621,9.392 118.422,10.048 118.838 C 10.352 119.031,10.403 119.191,10.163 119.194 C 9.877 119.198,9.711 120.659,9.684 123.404 C 9.634 128.484,9.679 128.400,6.999 128.400 C 5.227 128.400,4.735 128.558,4.223 129.289 C 3.345 130.542,3.426 131.600,4.400 131.600 C 4.840 131.600,5.200 131.390,5.200 131.133 C 5.200 130.877,5.294 130.761,5.409 130.876 C 5.905 131.372,5.106 132.300,4.353 132.104 C 3.590 131.904,3.559 132.091,3.601 136.648 C 3.625 139.261,3.634 142.705,3.622 144.300 L 3.600 147.200 1.800 147.200 C -0.795 147.200,-0.710 148.300,1.900 148.506 L 3.800 148.656 1.900 148.728 L 0.000 148.800 0.000 199.978 L 0.000 251.156 1.900 251.306 L 3.800 251.456 1.900 251.528 C -0.874 251.633,-0.968 253.200,1.800 253.200 L 3.600 253.200 3.644 256.300 C 3.668 258.005,3.697 260.660,3.707 262.200 C 3.718 263.757,3.920 265.130,4.163 265.294 C 4.463 265.496,4.443 265.590,4.100 265.594 C 3.337 265.603,3.504 266.716,4.300 266.924 C 4.925 267.088,4.920 267.112,4.249 267.154 C 3.591 267.194,3.522 267.452,3.694 269.243 C 3.925 271.641,4.321 271.970,6.884 271.896 C 9.485 271.820,9.622 272.062,9.679 276.835 C 9.709 279.336,9.903 281.117,10.165 281.294 C 10.462 281.495,10.442 281.590,10.100 281.594 C 9.825 281.597,9.600 281.960,9.600 282.400 C 9.600 282.925,9.867 283.200,10.376 283.200 C 10.803 283.200,11.248 283.354,11.364 283.542 C 11.481 283.730,11.139 283.801,10.606 283.699 C 9.688 283.523,9.648 283.595,9.855 285.057 C 10.433 289.140,11.622 290.400,14.898 290.400 C 16.207 290.400,16.219 290.418,16.064 292.048 C 15.959 293.148,16.088 293.810,16.453 294.041 C 16.853 294.294,16.865 294.389,16.500 294.394 C 15.352 294.408,15.934 296.797,17.100 296.854 C 18.112 296.905,18.125 296.923,17.252 297.089 C 16.041 297.318,16.214 300.392,17.511 301.689 C 18.791 302.969,22.000 303.181,22.000 301.985 C 22.000 301.480,22.129 301.196,22.287 301.354 C 22.445 301.512,22.534 302.712,22.485 304.020 C 22.416 305.835,22.528 306.400,22.955 306.400 C 23.263 306.400,23.634 306.715,23.781 307.100 C 23.995 307.661,23.948 307.701,23.544 307.300 C 22.826 306.588,22.400 306.681,22.400 307.551 C 22.400 308.785,23.326 309.193,25.866 309.080 C 28.582 308.958,28.379 308.639,28.415 313.075 C 28.436 315.710,28.512 315.964,29.319 316.120 C 30.160 316.283,30.156 316.294,29.244 316.346 C 28.156 316.408,28.209 319.981,29.314 321.086 C 30.420 322.191,33.994 322.244,34.040 321.156 L 34.080 320.200 34.400 321.200 C 34.576 321.750,34.741 323.190,34.766 324.400 C 34.832 327.523,35.082 327.766,38.471 328.000 L 41.372 328.200 41.386 331.200 L 41.400 334.200 43.975 334.258 C 47.151 334.330,47.469 334.694,47.351 338.121 C 47.270 340.492,47.327 340.692,48.027 340.509 C 48.447 340.399,48.675 340.122,48.534 339.893 C 48.384 339.651,48.470 339.596,48.738 339.762 C 49.394 340.167,49.310 340.800,48.600 340.800 C 47.864 340.800,47.862 340.895,48.552 342.546 C 49.178 344.045,50.952 345.600,52.036 345.600 C 52.977 345.600,54.800 347.423,54.800 348.364 C 54.800 349.448,56.355 351.222,57.854 351.848 C 59.580 352.569,59.530 352.587,59.675 351.205 L 59.800 350.011 60.263 351.006 C 60.517 351.553,60.581 351.912,60.405 351.803 C 60.133 351.635,59.600 352.459,59.600 353.046 C 59.600 353.146,60.760 353.164,62.179 353.088 C 65.808 352.892,66.200 353.215,66.200 356.400 L 66.200 359.000 69.200 359.000 L 72.200 359.000 72.400 361.915 C 72.639 365.398,72.919 365.663,76.200 365.511 L 78.600 365.400 78.619 367.904 C 78.646 371.560,78.976 371.783,84.514 371.874 C 91.765 371.994,91.521 371.936,91.310 373.498 C 91.206 374.274,91.354 375.110,91.665 375.494 C 92.046 375.963,92.056 376.067,91.700 375.853 C 91.390 375.667,91.200 375.777,91.200 376.144 C 91.200 377.343,91.711 378.000,92.643 378.000 C 93.704 378.000,93.857 377.619,93.100 376.856 C 92.699 376.452,92.739 376.405,93.300 376.619 C 93.685 376.766,94.000 377.137,94.000 377.445 C 94.000 377.872,94.565 377.984,96.380 377.915 C 97.688 377.866,98.888 377.955,99.046 378.113 C 99.204 378.271,98.920 378.400,98.415 378.400 C 97.219 378.400,97.431 381.609,98.711 382.889 C 100.008 384.186,103.082 384.359,103.311 383.148 C 103.477 382.275,103.495 382.288,103.546 383.300 C 103.600 384.395,106.000 385.080,106.000 384.000 C 106.000 383.780,106.191 383.600,106.424 383.600 C 106.657 383.600,106.723 383.802,106.570 384.048 C 106.374 384.366,106.832 384.431,108.147 384.270 L 110.000 384.043 110.000 385.434 C 110.000 388.782,111.236 389.964,115.343 390.545 C 116.805 390.752,116.877 390.712,116.701 389.794 C 116.599 389.261,116.670 388.919,116.858 389.036 C 117.046 389.152,117.200 389.597,117.200 390.024 C 117.200 390.533,117.475 390.800,118.000 390.800 C 118.440 390.800,118.803 390.575,118.806 390.300 C 118.811 389.919,118.885 389.914,119.116 390.278 C 119.299 390.566,120.369 390.746,121.810 390.732 C 123.124 390.719,125.123 390.729,126.252 390.754 L 128.304 390.800 128.478 393.206 C 128.746 396.918,127.330 396.595,144.100 396.768 L 147.200 396.800 147.200 398.400 C 147.200 400.533,147.913 400.454,148.107 398.300 L 148.260 396.600 148.330 398.300 L 148.400 400.000 200.177 400.000 L 251.954 400.000 252.107 398.300 L 252.260 396.600 252.330 398.300 C 252.419 400.456,253.200 400.546,253.200 398.400 L 253.200 396.800 256.300 396.768 C 273.070 396.595,271.654 396.918,271.922 393.206 L 272.096 390.800 274.148 390.754 C 275.277 390.729,277.276 390.719,278.590 390.732 C 280.031 390.746,281.101 390.566,281.284 390.278 C 281.515 389.914,281.589 389.919,281.594 390.300 C 281.597 390.575,281.960 390.800,282.400 390.800 C 282.925 390.800,283.200 390.533,283.200 390.024 C 283.200 389.597,283.354 389.152,283.542 389.036 C 283.730 388.919,283.801 389.261,283.699 389.794 C 283.523 390.712,283.595 390.752,285.057 390.545 C 289.155 389.965,290.400 388.781,290.400 385.462 L 290.400 384.098 292.260 384.308 C 293.599 384.459,294.041 384.389,293.836 384.059 C 293.680 383.806,293.743 383.600,293.976 383.600 C 294.209 383.600,294.400 383.780,294.400 384.000 C 294.400 385.080,296.800 384.395,296.854 383.300 C 296.905 382.288,296.923 382.275,297.089 383.148 C 297.318 384.359,300.392 384.186,301.689 382.889 C 302.969 381.609,303.181 378.400,301.985 378.400 C 301.480 378.400,301.196 378.271,301.354 378.113 C 301.512 377.955,302.712 377.866,304.020 377.915 C 305.835 377.984,306.400 377.872,306.400 377.445 C 306.400 377.137,306.715 376.766,307.100 376.619 C 307.661 376.405,307.701 376.452,307.300 376.856 C 306.588 377.574,306.681 378.000,307.551 378.000 C 308.785 378.000,309.193 377.074,309.080 374.534 C 308.958 371.818,308.639 372.021,313.075 371.985 C 315.710 371.964,315.964 371.888,316.120 371.081 C 316.283 370.240,316.294 370.244,316.346 371.156 C 316.408 372.244,319.981 372.191,321.086 371.086 C 322.191 369.980,322.244 366.406,321.156 366.360 L 320.200 366.320 321.200 366.000 C 321.750 365.824,323.190 365.659,324.400 365.634 C 327.525 365.568,327.766 365.319,328.000 361.915 L 328.200 359.000 331.200 359.000 L 334.200 359.000 334.200 356.400 C 334.200 353.209,334.589 352.892,338.270 353.091 C 340.563 353.214,340.866 353.149,340.649 352.583 C 340.512 352.227,340.400 351.849,340.400 351.744 C 340.400 351.639,340.237 351.654,340.037 351.777 C 339.838 351.900,339.883 351.553,340.137 351.006 L 340.600 350.011 340.725 351.205 C 340.870 352.587,340.820 352.569,342.546 351.848 C 344.045 351.222,345.600 349.448,345.600 348.364 C 345.600 347.423,347.423 345.600,348.364 345.600 C 349.448 345.600,351.222 344.045,351.848 342.546 C 352.538 340.895,352.536 340.800,351.800 340.800 C 351.090 340.800,351.006 340.167,351.662 339.762 C 351.930 339.596,352.016 339.651,351.866 339.893 C 351.725 340.122,351.953 340.399,352.373 340.509 C 353.072 340.692,353.130 340.493,353.050 338.163 C 352.927 334.564,353.234 334.200,356.400 334.200 L 359.000 334.200 359.014 331.200 L 359.028 328.200 361.929 328.000 C 365.318 327.766,365.568 327.523,365.634 324.400 C 365.659 323.190,365.824 321.750,366.000 321.200 L 366.320 320.200 366.360 321.156 C 366.406 322.244,369.980 322.191,371.086 321.086 C 372.184 319.987,372.232 316.494,371.152 316.289 C 370.250 316.118,370.247 316.106,371.081 316.054 C 371.901 316.004,371.964 315.798,371.985 313.100 C 372.021 308.635,371.816 308.958,374.534 309.080 C 377.074 309.193,378.000 308.785,378.000 307.551 C 378.000 306.681,377.574 306.588,376.856 307.300 C 376.452 307.701,376.405 307.661,376.619 307.100 C 376.766 306.715,377.155 306.400,377.485 306.400 C 377.943 306.400,378.048 306.023,377.931 304.800 C 377.848 303.920,377.919 303.200,378.089 303.200 C 378.260 303.200,378.425 302.705,378.454 302.100 C 378.501 301.157,378.534 301.128,378.682 301.900 C 379.005 303.574,382.686 302.847,383.556 300.937 C 384.328 299.242,384.122 297.679,383.100 297.482 C 382.328 297.334,382.357 297.301,383.300 297.254 C 384.529 297.194,384.915 295.115,383.900 294.021 C 383.496 293.586,383.507 293.544,383.959 293.801 C 384.414 294.061,384.479 293.776,384.308 292.260 L 384.098 290.400 385.462 290.400 C 388.781 290.400,389.965 289.155,390.545 285.057 C 390.752 283.595,390.712 283.523,389.794 283.699 C 389.261 283.801,388.919 283.730,389.036 283.542 C 389.152 283.354,389.597 283.200,390.024 283.200 C 390.533 283.200,390.800 282.925,390.800 282.400 C 390.800 281.960,390.575 281.597,390.300 281.594 C 389.958 281.590,389.938 281.495,390.235 281.294 C 390.497 281.117,390.691 279.336,390.721 276.835 C 390.779 272.025,390.791 272.004,393.485 271.943 C 396.180 271.882,396.475 271.638,396.702 269.281 C 396.867 267.567,396.786 267.249,396.147 267.085 C 395.488 266.915,395.482 266.887,396.100 266.846 C 396.888 266.794,397.078 265.603,396.300 265.594 C 395.957 265.590,395.937 265.496,396.237 265.294 C 396.480 265.130,396.682 263.757,396.693 262.200 C 396.703 260.660,396.732 258.005,396.756 256.300 L 396.800 253.200 398.400 253.200 L 400.000 253.200 400.000 201.223 L 400.000 149.246 398.300 149.093 L 396.600 148.940 398.300 148.870 C 400.758 148.769,400.851 147.200,398.400 147.200 L 396.800 147.200 396.777 144.100 C 396.765 142.395,396.775 138.951,396.799 136.448 C 396.842 132.089,396.810 131.904,396.048 132.103 C 395.294 132.300,394.495 131.372,394.991 130.876 C 395.106 130.761,395.200 130.877,395.200 131.133 C 395.200 131.390,395.560 131.600,396.000 131.600 C 396.974 131.600,397.055 130.542,396.177 129.289 C 395.665 128.558,395.173 128.400,393.401 128.400 C 390.729 128.400,390.780 128.494,390.720 123.514 C 390.691 121.049,390.496 119.282,390.235 119.106 C 389.938 118.905,389.958 118.810,390.300 118.806 C 390.575 118.803,390.800 118.440,390.800 118.000 C 390.800 117.475,390.533 117.200,390.024 117.200 C 389.597 117.200,389.152 117.046,389.036 116.858 C 388.919 116.670,389.261 116.599,389.794 116.701 C 390.712 116.877,390.752 116.805,390.545 115.343 C 389.966 111.249,388.780 110.000,385.473 110.000 C 384.126 110.000,384.121 109.992,384.286 108.340 C 384.395 107.248,384.272 106.565,383.926 106.346 C 383.526 106.092,383.520 106.011,383.900 106.006 C 385.048 105.992,384.466 103.603,383.300 103.546 C 382.288 103.495,382.275 103.477,383.148 103.311 C 384.359 103.082,384.186 100.008,382.889 98.711 C 381.609 97.431,378.400 97.219,378.400 98.415 C 378.400 98.920,378.271 99.204,378.113 99.046 C 377.955 98.888,377.866 97.688,377.915 96.380 C 377.984 94.565,377.872 94.000,377.445 94.000 C 377.137 94.000,376.766 93.685,376.619 93.300 C 376.405 92.739,376.452 92.699,376.856 93.100 C 377.619 93.857,378.000 93.704,378.000 92.643 C 378.000 91.711,377.343 91.200,376.144 91.200 C 375.777 91.200,375.667 91.390,375.853 91.700 C 376.067 92.056,375.963 92.046,375.494 91.665 C 375.110 91.354,374.274 91.206,373.498 91.310 C 371.945 91.520,372.036 91.902,371.890 84.568 C 371.782 79.125,371.597 78.833,368.053 78.511 L 365.600 78.289 365.594 76.044 C 365.585 72.891,365.330 72.635,361.963 72.400 L 359.095 72.200 359.047 69.200 L 359.000 66.200 356.425 66.142 C 353.249 66.070,352.931 65.706,353.049 62.279 C 353.130 59.908,353.073 59.708,352.373 59.891 C 351.953 60.001,351.725 60.278,351.866 60.507 C 352.016 60.749,351.930 60.804,351.662 60.638 C 351.006 60.233,351.090 59.600,351.800 59.600 C 352.536 59.600,352.538 59.505,351.848 57.854 C 351.222 56.355,349.448 54.800,348.364 54.800 C 347.423 54.800,345.600 52.977,345.600 52.036 C 345.600 50.952,344.045 49.178,342.546 48.552 C 340.820 47.831,340.870 47.813,340.725 49.195 L 340.600 50.389 340.137 49.394 C 339.883 48.847,339.819 48.488,339.995 48.597 C 340.267 48.765,340.800 47.941,340.800 47.354 C 340.800 47.254,339.640 47.236,338.221 47.312 C 334.592 47.508,334.200 47.185,334.200 44.000 L 334.200 41.400 331.200 41.400 L 328.200 41.400 328.000 38.485 C 327.766 35.081,327.525 34.832,324.400 34.766 C 323.190 34.741,321.750 34.576,321.200 34.400 L 320.200 34.080 321.156 34.040 C 322.244 33.994,322.191 30.420,321.086 29.314 C 319.987 28.216,316.494 28.168,316.289 29.248 C 316.118 30.150,316.106 30.153,316.054 29.319 C 316.003 28.489,315.823 28.440,312.980 28.479 C 309.366 28.528,309.012 28.260,309.154 25.581 C 309.296 22.901,307.260 20.863,306.676 23.100 C 306.505 23.753,306.490 23.754,306.446 23.109 C 306.408 22.532,306.002 22.424,303.977 22.453 C 302.644 22.471,301.444 22.377,301.310 22.243 C 301.176 22.109,301.480 22.000,301.985 22.000 C 303.181 22.000,302.969 18.791,301.689 17.511 C 300.392 16.214,297.318 16.041,297.089 17.252 C 296.923 18.125,296.905 18.112,296.854 17.100 C 296.797 15.934,294.408 15.352,294.394 16.500 C 294.389 16.865,294.294 16.853,294.041 16.453 C 293.810 16.088,293.148 15.959,292.048 16.064 C 290.418 16.219,290.400 16.207,290.400 14.898 C 290.400 11.622,289.140 10.433,285.057 9.855 C 283.595 9.648,283.523 9.688,283.699 10.606 C 283.801 11.139,283.730 11.481,283.542 11.364 C 283.354 11.248,283.200 10.803,283.200 10.376 C 283.200 9.867,282.925 9.600,282.400 9.600 C 281.960 9.600,281.597 9.825,281.594 10.100 C 281.589 10.481,281.515 10.486,281.284 10.122 C 281.101 9.834,280.031 9.654,278.590 9.668 C 277.276 9.681,275.277 9.671,274.148 9.646 L 272.096 9.600 271.922 7.194 C 271.677 3.805,271.687 3.810,264.879 3.735 C 261.646 3.699,257.695 3.654,256.100 3.635 L 253.200 3.600 253.200 1.800 C 253.200 -0.593,252.484 -0.514,252.294 1.900 L 252.144 3.800 252.072 1.900 L 252.000 0.000 200.222 -0.000 L 148.444 -0.000 148.294 1.900 L 148.144 3.800 148.072 1.900 C 147.980 -0.517,147.200 -0.607,147.200 1.800 M100.300 18.500 C 100.245 18.775,100.425 18.955,100.700 18.900 C 101.369 18.766,101.330 18.994,100.577 19.619 C 100.063 20.046,99.976 20.037,100.077 19.568 C 100.146 19.249,99.951 19.054,99.632 19.123 C 99.163 19.224,99.154 19.137,99.581 18.623 C 100.206 17.870,100.434 17.831,100.300 18.500 M300.819 18.623 C 301.246 19.137,301.237 19.224,300.768 19.123 C 300.455 19.055,300.245 19.225,300.300 19.500 C 300.434 20.169,300.206 20.130,299.581 19.377 C 299.154 18.863,299.163 18.776,299.632 18.877 C 299.945 18.945,300.155 18.775,300.100 18.500 C 299.966 17.831,300.194 17.870,300.819 18.623 M317.919 29.911 C 317.468 30.466,317.505 30.510,318.200 30.251 C 318.844 30.011,318.902 30.051,318.497 30.459 C 318.092 30.868,317.859 30.828,317.297 30.256 C 316.742 29.692,316.722 29.573,317.200 29.673 C 317.530 29.743,317.751 29.562,317.690 29.270 C 317.630 28.979,317.773 28.860,318.010 29.006 C 318.306 29.189,318.278 29.469,317.919 29.911 M320.113 32.300 C 319.888 32.899,319.942 32.925,320.489 32.481 C 320.931 32.122,321.211 32.094,321.394 32.390 C 321.540 32.627,321.421 32.770,321.130 32.710 C 320.838 32.649,320.657 32.870,320.727 33.200 C 320.831 33.696,320.736 33.685,320.179 33.138 C 319.809 32.774,319.627 32.279,319.776 32.038 C 320.196 31.359,320.404 31.521,320.113 32.300 M248.938 57.681 C 249.632 58.165,250.332 58.750,250.494 58.981 C 250.656 59.211,250.791 69.615,250.794 82.100 C 250.800 104.104,250.823 104.800,251.557 104.800 C 252.427 104.800,252.633 105.210,253.003 107.678 L 253.270 109.458 256.769 110.129 C 258.956 110.548,262.282 110.801,265.635 110.803 C 274.188 110.807,288.226 111.552,292.882 112.249 C 298.702 113.120,300.977 115.282,302.022 120.936 C 302.829 125.304,302.321 198.675,301.468 200.876 C 299.228 206.658,296.308 207.561,277.800 208.200 C 273.840 208.336,269.658 208.645,268.507 208.886 L 266.415 209.324 266.257 228.562 C 266.031 256.091,265.582 258.349,260.320 258.417 C 258.021 258.446,255.042 259.362,253.569 260.492 C 250.716 262.681,246.018 263.691,235.400 264.398 C 226.757 264.974,224.689 265.339,223.066 266.577 C 217.339 270.945,193.576 272.892,191.577 269.157 C 191.334 268.702,190.593 267.846,189.931 267.255 C 188.113 265.631,188.037 263.962,188.018 225.483 L 188.000 190.766 189.800 188.841 C 190.790 187.783,191.600 186.802,191.600 186.662 C 191.600 186.122,194.551 182.566,195.550 181.903 C 196.439 181.312,197.587 181.205,203.046 181.203 L 209.491 181.200 210.546 179.678 L 211.600 178.157 211.600 165.816 L 211.600 153.476 210.600 152.164 C 210.050 151.443,209.600 150.563,209.600 150.209 C 209.600 149.024,171.446 149.507,168.141 150.734 C 164.997 151.900,165.213 150.577,165.202 168.800 C 165.190 190.603,164.919 192.252,161.019 194.288 C 158.907 195.390,143.099 194.127,134.034 192.132 C 126.489 190.471,120.662 189.676,112.600 189.209 C 102.310 188.612,101.198 188.237,99.656 184.843 C 98.519 182.342,98.440 109.474,99.572 107.256 C 100.488 105.460,102.046 104.091,103.565 103.750 C 104.134 103.621,105.680 103.102,107.000 102.594 C 109.595 101.597,118.259 100.876,138.190 99.999 L 147.379 99.595 148.790 98.454 L 150.200 97.313 150.400 84.326 L 150.600 71.340 151.656 69.745 C 154.038 66.147,164.666 64.058,188.000 62.600 C 200.961 61.790,208.513 60.998,214.924 59.776 C 217.826 59.222,222.180 58.579,224.600 58.346 C 227.020 58.113,231.340 57.695,234.200 57.416 C 243.016 56.556,247.441 56.636,248.938 57.681 M19.100 99.700 C 19.045 99.975,19.225 100.155,19.500 100.100 C 20.169 99.966,20.130 100.194,19.377 100.819 C 18.863 101.246,18.776 101.237,18.877 100.768 C 18.946 100.449,18.751 100.254,18.432 100.323 C 17.963 100.424,17.954 100.337,18.381 99.823 C 19.006 99.070,19.234 99.031,19.100 99.700 M382.019 99.823 C 382.446 100.337,382.437 100.424,381.968 100.323 C 381.655 100.255,381.445 100.425,381.500 100.700 C 381.634 101.369,381.406 101.330,380.781 100.577 C 380.354 100.063,380.363 99.976,380.832 100.077 C 381.145 100.145,381.355 99.975,381.300 99.700 C 381.166 99.031,381.394 99.070,382.019 99.823 M190.000 278.964 C 195.310 279.777,201.257 280.301,210.800 280.798 C 232.729 281.940,231.600 280.039,231.600 315.831 L 231.600 341.138 229.978 342.526 C 226.751 345.288,218.140 344.556,209.800 340.810 C 207.312 339.693,205.432 339.250,199.467 338.378 C 193.361 337.485,191.183 336.874,188.200 335.221 C 187.100 334.611,184.323 333.502,182.028 332.756 C 179.115 331.809,177.455 331.024,176.528 330.153 L 175.200 328.906 175.200 305.913 L 175.200 282.920 176.389 281.278 C 177.230 280.117,178.021 279.522,179.089 279.246 C 182.383 278.394,184.245 278.085,185.200 278.230 C 185.750 278.314,187.910 278.644,190.000 278.964 M19.619 299.823 C 20.046 300.337,20.037 300.424,19.568 300.323 C 19.255 300.255,19.045 300.425,19.100 300.700 C 19.234 301.369,19.006 301.330,18.381 300.577 C 17.954 300.063,17.963 299.976,18.432 300.077 C 18.745 300.145,18.955 299.975,18.900 299.700 C 18.766 299.031,18.994 299.070,19.619 299.823 M30.459 318.497 C 30.051 318.902,30.011 318.844,30.251 318.200 C 30.510 317.505,30.466 317.468,29.911 317.919 C 29.469 318.278,29.189 318.306,29.006 318.010 C 28.860 317.773,28.979 317.630,29.270 317.690 C 29.562 317.751,29.743 317.530,29.673 317.200 C 29.573 316.722,29.692 316.742,30.256 317.297 C 30.828 317.859,30.868 318.092,30.459 318.497 M370.700 317.300 C 370.645 317.575,370.838 317.751,371.130 317.690 C 371.421 317.630,371.540 317.773,371.394 318.010 C 371.211 318.306,370.931 318.278,370.489 317.919 C 369.934 317.468,369.890 317.505,370.149 318.200 C 370.383 318.827,370.342 318.896,369.961 318.517 C 369.578 318.138,369.584 317.901,369.986 317.417 C 370.606 316.670,370.834 316.632,370.700 317.300 M33.219 320.223 C 33.646 320.737,33.637 320.824,33.168 320.723 C 32.855 320.655,32.649 320.838,32.710 321.130 C 32.770 321.421,32.627 321.540,32.390 321.394 C 32.094 321.211,32.122 320.931,32.481 320.489 C 32.927 319.941,32.898 319.888,32.279 320.121 C 31.846 320.283,31.656 320.233,31.803 319.995 C 32.152 319.430,32.624 319.506,33.219 320.223 M368.597 319.995 C 368.744 320.233,368.554 320.283,368.121 320.121 C 367.502 319.888,367.473 319.941,367.919 320.489 C 368.278 320.931,368.306 321.211,368.010 321.394 C 367.773 321.540,367.630 321.421,367.690 321.130 C 367.751 320.838,367.545 320.655,367.232 320.723 C 366.763 320.824,366.754 320.737,367.181 320.223 C 367.776 319.506,368.248 319.430,368.597 319.995 M320.700 367.300 C 320.645 367.575,320.838 367.751,321.130 367.690 C 321.421 367.630,321.540 367.773,321.394 368.010 C 321.211 368.306,320.931 368.278,320.489 367.919 C 319.934 367.468,319.890 367.505,320.149 368.200 C 320.383 368.827,320.342 368.896,319.961 368.517 C 319.578 368.138,319.584 367.901,319.986 367.417 C 320.606 366.670,320.834 366.632,320.700 367.300 M318.597 369.995 C 318.744 370.233,318.554 370.283,318.121 370.121 C 317.502 369.888,317.473 369.941,317.919 370.489 C 318.278 370.931,318.306 371.211,318.010 371.394 C 317.773 371.540,317.630 371.421,317.690 371.130 C 317.751 370.838,317.545 370.655,317.232 370.723 C 316.763 370.824,316.754 370.737,317.181 370.223 C 317.776 369.506,318.248 369.430,318.597 369.995 M100.819 381.023 C 101.246 381.537,101.237 381.624,100.768 381.523 C 100.455 381.455,100.245 381.625,100.300 381.900 C 100.434 382.569,100.206 382.530,99.581 381.777 C 99.154 381.263,99.163 381.176,99.632 381.277 C 99.945 381.345,100.155 381.175,100.100 380.900 C 99.966 380.231,100.194 380.270,100.819 381.023 M300.300 380.900 C 300.245 381.175,300.425 381.355,300.700 381.300 C 301.369 381.166,301.330 381.394,300.577 382.019 C 300.063 382.446,299.976 382.437,300.077 381.968 C 300.146 381.649,299.951 381.454,299.632 381.523 C 299.163 381.624,299.154 381.537,299.581 381.023 C 300.206 380.270,300.434 380.231,300.300 380.900 " stroke="none" fill="#f6f8fc" fill-rule="evenodd"></path></g></svg>