<svg id="svg" version="1.1" width="400" height="400" viewBox="0 0 400 400" xmlns="http://www.w3.org/2000/svg" xmlns:xlink="http://www.w3.org/1999/xlink" ><g id="svgg"><path id="path0" d="" stroke="none" fill="#5555ff" fill-rule="evenodd"></path><path id="path1" d="M206.141 215.496 L 203.283 215.633 203.007 217.103 C 202.405 220.315,201.228 221.314,197.600 221.695 C 196.747 221.785,196.566 222.053,196.370 223.521 C 196.070 225.774,194.665 227.187,192.426 227.487 C 190.634 227.728,190.600 227.767,190.218 230.071 C 189.856 232.260,188.872 233.208,186.386 233.768 C 184.751 234.136,184.170 234.454,184.082 235.030 C 183.556 238.466,182.063 239.955,178.613 240.485 C 178.058 240.570,177.671 241.150,177.305 242.448 C 176.676 244.673,175.658 245.668,173.466 246.200 C 172.130 246.523,171.746 246.829,171.453 247.800 C 170.386 251.346,169.808 251.927,166.686 252.587 C 165.572 252.822,165.076 253.572,164.618 255.710 C 164.272 257.322,163.018 258.400,161.489 258.400 C 159.479 258.400,158.400 259.362,158.400 261.153 C 158.400 262.972,157.211 264.264,155.181 264.650 C 152.995 265.066,152.524 265.466,152.256 267.138 C 151.906 269.328,150.886 270.400,148.602 270.980 C 146.579 271.494,146.203 271.855,145.832 273.637 C 145.529 275.092,143.758 276.734,142.169 277.032 C 140.589 277.329,140.294 277.660,139.673 279.835 C 139.101 281.839,138.182 282.712,135.952 283.371 C 134.129 283.909,134.059 283.988,132.860 286.856 C 132.166 288.516,131.856 288.796,129.942 289.494 C 128.197 290.131,127.649 290.567,126.987 291.846 C 125.641 294.446,125.070 295.055,123.486 295.574 C 121.460 296.239,120.904 297.261,120.728 300.644 L 120.580 303.488 124.990 303.742 C 130.560 304.063,290.288 304.073,291.484 303.752 C 293.295 303.266,292.135 295.921,290.169 295.428 C 288.417 294.988,287.305 294.037,286.472 292.264 C 285.694 290.608,285.151 290.191,282.453 289.172 C 281.109 288.665,279.604 286.764,279.601 285.570 C 279.600 284.740,277.938 283.200,277.043 283.200 C 276.018 283.200,274.030 281.050,273.747 279.635 C 273.450 278.150,272.901 277.670,270.294 276.618 C 268.670 275.962,268.118 275.483,267.504 274.200 C 267.082 273.320,266.599 272.333,266.429 272.006 C 266.259 271.679,265.347 271.188,264.401 270.914 C 262.160 270.266,261.294 269.439,260.759 267.436 C 260.192 265.315,259.850 264.936,258.231 264.632 C 256.471 264.302,254.884 262.670,254.558 260.855 C 254.193 258.827,253.736 258.400,251.933 258.400 C 249.918 258.400,248.516 257.069,248.156 254.813 C 247.874 253.051,247.408 252.651,245.164 252.247 C 243.322 251.915,242.032 250.529,241.729 248.557 C 241.414 246.513,241.080 246.147,239.269 245.857 C 237.472 245.570,236.112 244.258,235.753 242.466 C 235.478 241.092,234.300 240.000,233.091 240.000 C 232.689 240.000,231.855 239.738,231.236 239.419 C 230.173 238.869,229.792 238.202,228.948 235.412 C 228.657 234.447,228.244 234.126,226.750 233.704 C 224.471 233.060,223.671 232.204,223.041 229.732 C 222.687 228.346,222.329 227.768,221.774 227.683 C 218.486 227.180,216.777 225.597,216.319 222.630 C 216.230 222.055,215.649 221.736,214.014 221.368 C 211.528 220.808,210.544 219.860,210.182 217.671 C 209.847 215.655,209.677 215.187,209.313 215.279 C 209.141 215.323,207.714 215.421,206.141 215.496 " stroke="none" fill="#e60012" fill-rule="evenodd"></path><path id="path2" d="M202.749 215.057 C 202.447 215.418,201.834 216.453,201.387 217.357 C 200.775 218.594,200.073 219.247,198.545 220.000 C 195.881 221.314,195.300 221.833,195.007 223.166 C 194.759 224.298,193.256 225.674,191.745 226.154 C 190.643 226.504,189.763 227.509,188.682 229.651 C 188.019 230.965,187.303 231.655,185.800 232.426 C 184.665 233.008,183.417 234.046,182.915 234.826 C 181.167 237.539,180.746 238.007,179.482 238.646 C 177.684 239.554,176.444 240.762,175.580 242.447 C 175.085 243.412,174.265 244.164,173.119 244.703 C 171.220 245.597,170.232 246.549,169.828 247.875 C 169.517 248.896,167.022 251.200,166.228 251.200 C 165.597 251.200,163.702 253.323,162.733 255.116 C 162.366 255.795,161.349 256.716,160.474 257.162 C 159.598 257.609,158.459 258.539,157.941 259.230 C 156.495 261.160,154.706 262.888,152.879 264.119 C 151.967 264.734,150.923 265.863,150.560 266.627 C 149.931 267.953,148.116 269.600,147.285 269.600 C 146.800 269.600,144.000 272.658,144.000 273.189 C 144.000 273.401,143.055 274.284,141.900 275.150 C 140.745 276.017,139.413 277.147,138.940 277.663 C 137.650 279.068,135.531 281.181,133.349 283.239 C 132.277 284.250,130.950 285.556,130.400 286.142 C 129.386 287.221,125.078 291.338,121.105 295.024 C 119.270 296.727,118.783 297.489,118.038 299.824 C 117.551 301.351,117.067 302.799,116.962 303.042 C 116.318 304.539,118.510 304.580,205.600 304.716 C 283.707 304.839,290.013 304.799,292.739 304.168 L 295.678 303.488 295.418 302.244 C 295.276 301.560,295.054 300.156,294.927 299.125 C 294.733 297.561,294.437 297.042,293.147 296.006 C 292.296 295.322,291.600 294.514,291.600 294.210 C 291.600 293.577,291.084 293.011,289.219 291.600 C 285.929 289.110,282.972 286.275,273.665 276.692 C 272.859 275.862,271.793 275.077,271.296 274.947 C 270.798 274.817,270.004 274.146,269.531 273.456 C 268.156 271.447,266.712 269.981,265.086 268.940 C 264.253 268.408,263.260 267.460,262.880 266.836 C 262.500 266.211,261.042 264.741,259.640 263.570 C 258.238 262.398,256.760 260.890,256.357 260.220 C 255.953 259.549,254.583 258.267,253.312 257.370 C 252.040 256.474,250.505 255.006,249.899 254.109 C 249.294 253.211,247.805 251.818,246.591 251.012 C 245.377 250.205,244.080 249.063,243.709 248.473 C 242.471 246.504,241.096 245.008,239.782 244.200 C 239.066 243.760,237.739 242.456,236.833 241.302 C 235.926 240.148,234.595 238.958,233.874 238.657 C 232.504 238.084,230.400 235.896,230.400 235.044 C 230.400 234.381,228.541 232.762,226.732 231.849 C 225.887 231.423,225.165 230.716,225.032 230.185 C 224.666 228.728,222.921 226.916,220.740 225.728 C 219.413 225.007,218.483 224.146,217.996 223.191 C 217.134 221.502,216.472 220.897,214.264 219.779 C 213.172 219.226,212.343 218.392,211.727 217.227 C 210.236 214.407,210.223 214.400,206.600 214.400 C 204.027 214.400,203.177 214.545,202.749 215.057 M209.781 215.700 C 209.867 215.975,210.047 216.862,210.182 217.671 C 210.544 219.860,211.528 220.808,214.014 221.368 C 215.649 221.736,216.230 222.055,216.319 222.630 C 216.777 225.597,218.486 227.180,221.774 227.683 C 222.329 227.768,222.687 228.346,223.041 229.732 C 223.671 232.204,224.471 233.060,226.750 233.704 C 228.244 234.126,228.657 234.447,228.948 235.412 C 229.792 238.202,230.173 238.869,231.236 239.419 C 231.855 239.738,232.689 240.000,233.091 240.000 C 234.300 240.000,235.478 241.092,235.753 242.466 C 236.112 244.258,237.472 245.570,239.269 245.857 C 241.080 246.147,241.414 246.513,241.729 248.557 C 242.032 250.529,243.322 251.915,245.164 252.247 C 247.408 252.651,247.874 253.051,248.156 254.813 C 248.516 257.069,249.918 258.400,251.933 258.400 C 253.736 258.400,254.193 258.827,254.558 260.855 C 254.884 262.670,256.471 264.302,258.231 264.632 C 259.850 264.936,260.192 265.315,260.759 267.436 C 261.294 269.439,262.160 270.266,264.401 270.914 C 265.347 271.188,266.259 271.679,266.429 272.006 C 266.599 272.333,267.082 273.320,267.504 274.200 C 268.118 275.483,268.670 275.962,270.294 276.618 C 272.901 277.670,273.450 278.150,273.747 279.635 C 274.030 281.050,276.018 283.200,277.043 283.200 C 277.938 283.200,279.600 284.740,279.601 285.570 C 279.604 286.764,281.109 288.665,282.453 289.172 C 285.151 290.191,285.694 290.608,286.472 292.264 C 287.305 294.037,288.417 294.988,290.169 295.428 C 292.135 295.921,293.295 303.266,291.484 303.752 C 290.288 304.073,130.560 304.063,124.990 303.742 L 120.580 303.488 120.728 300.644 C 120.904 297.261,121.460 296.239,123.486 295.574 C 125.070 295.055,125.641 294.446,126.987 291.846 C 127.649 290.567,128.197 290.131,129.942 289.494 C 131.856 288.796,132.166 288.516,132.860 286.856 C 134.059 283.988,134.129 283.909,135.952 283.371 C 138.182 282.712,139.101 281.839,139.673 279.835 C 140.294 277.660,140.589 277.329,142.169 277.032 C 143.758 276.734,145.529 275.092,145.832 273.637 C 146.203 271.855,146.579 271.494,148.602 270.980 C 150.886 270.400,151.906 269.328,152.256 267.138 C 152.524 265.466,152.995 265.066,155.181 264.650 C 157.211 264.264,158.400 262.972,158.400 261.153 C 158.400 259.362,159.479 258.400,161.489 258.400 C 163.018 258.400,164.272 257.322,164.618 255.710 C 165.076 253.572,165.572 252.822,166.686 252.587 C 169.808 251.927,170.386 251.346,171.453 247.800 C 171.746 246.829,172.130 246.523,173.466 246.200 C 175.658 245.668,176.676 244.673,177.305 242.448 C 177.671 241.150,178.058 240.570,178.613 240.485 C 182.063 239.955,183.556 238.466,184.082 235.030 C 184.170 234.454,184.751 234.136,186.386 233.768 C 188.872 233.208,189.856 232.260,190.218 230.071 C 190.600 227.767,190.634 227.728,192.426 227.487 C 194.665 227.187,196.070 225.774,196.370 223.521 C 196.566 222.053,196.747 221.785,197.600 221.695 C 201.228 221.314,202.405 220.315,203.007 217.103 L 203.283 215.633 206.141 215.496 C 207.714 215.421,209.141 215.323,209.313 215.279 C 209.484 215.236,209.695 215.425,209.781 215.700 " stroke="none" fill="#e81f2f" fill-rule="evenodd"></path><path id="path3" d="M201.941 214.300 C 201.159 215.125,200.224 216.250,199.863 216.800 C 199.503 217.350,198.274 218.430,197.133 219.200 C 195.991 219.970,194.505 221.383,193.829 222.339 C 193.153 223.296,191.888 224.559,191.017 225.147 C 190.146 225.735,188.706 227.155,187.817 228.303 C 186.928 229.450,185.336 230.955,184.280 231.646 C 183.223 232.337,181.926 233.554,181.397 234.351 C 180.867 235.148,179.391 236.623,178.117 237.629 C 176.843 238.634,175.560 239.951,175.266 240.554 C 174.973 241.157,173.880 242.263,172.837 243.012 C 171.795 243.760,169.851 245.504,168.519 246.887 C 167.186 248.269,162.986 252.370,159.185 256.000 C 155.384 259.630,149.547 265.300,146.214 268.600 C 142.881 271.900,139.534 275.082,138.777 275.671 C 138.020 276.260,134.250 279.820,130.400 283.582 C 119.106 294.616,118.260 295.424,117.000 296.368 C 115.986 297.127,115.700 297.759,115.154 300.451 L 114.508 303.635 115.554 304.167 C 118.300 305.562,120.706 305.600,206.507 305.600 C 307.276 305.600,298.106 306.135,297.705 300.278 C 297.517 297.528,297.374 297.075,296.501 296.478 C 294.339 294.999,291.974 292.635,291.746 291.727 C 291.598 291.139,290.885 290.451,289.900 289.949 C 289.017 289.498,287.553 288.318,286.647 287.325 C 285.741 286.332,284.466 285.043,283.813 284.460 C 282.233 283.050,279.647 280.456,278.357 278.987 C 277.783 278.334,276.545 277.170,275.605 276.400 C 274.664 275.630,271.588 272.750,268.769 270.000 C 265.950 267.250,262.400 263.830,260.879 262.400 C 259.359 260.970,256.056 257.820,253.540 255.400 C 251.024 252.980,248.163 250.261,247.183 249.358 C 246.202 248.455,244.306 246.565,242.969 245.158 C 241.632 243.751,239.149 241.340,237.451 239.800 C 233.347 236.077,225.644 228.374,224.428 226.776 C 223.893 226.073,222.878 225.257,222.172 224.963 C 221.467 224.668,220.145 223.491,219.235 222.349 C 218.325 221.206,217.000 219.844,216.290 219.323 C 215.581 218.802,213.827 217.121,212.394 215.588 L 209.788 212.800 206.575 212.800 C 203.382 212.800,203.354 212.809,201.941 214.300 M210.357 214.948 C 210.607 215.249,211.223 216.275,211.727 217.227 C 212.343 218.392,213.172 219.226,214.264 219.779 C 216.472 220.897,217.134 221.502,217.996 223.191 C 218.483 224.146,219.413 225.007,220.740 225.728 C 222.921 226.916,224.666 228.728,225.032 230.185 C 225.165 230.716,225.887 231.423,226.732 231.849 C 228.541 232.762,230.400 234.381,230.400 235.044 C 230.400 235.896,232.504 238.084,233.874 238.657 C 234.595 238.958,235.926 240.148,236.833 241.302 C 237.739 242.456,239.066 243.760,239.782 244.200 C 241.096 245.008,242.471 246.504,243.709 248.473 C 244.080 249.063,245.377 250.205,246.591 251.012 C 247.805 251.818,249.294 253.211,249.899 254.109 C 250.505 255.006,252.040 256.474,253.312 257.370 C 254.583 258.267,255.953 259.549,256.357 260.220 C 256.760 260.890,258.238 262.398,259.640 263.570 C 261.042 264.741,262.500 266.211,262.880 266.836 C 263.260 267.460,264.253 268.408,265.086 268.940 C 266.712 269.981,268.156 271.447,269.531 273.456 C 270.004 274.146,270.798 274.817,271.296 274.947 C 271.793 275.077,272.859 275.862,273.665 276.692 C 282.972 286.275,285.929 289.110,289.219 291.600 C 291.084 293.011,291.600 293.577,291.600 294.210 C 291.600 294.514,292.296 295.322,293.147 296.006 C 294.437 297.042,294.733 297.561,294.927 299.125 C 295.054 300.156,295.276 301.560,295.418 302.244 L 295.678 303.488 292.739 304.168 C 290.013 304.799,283.707 304.839,205.600 304.716 C 118.510 304.580,116.318 304.539,116.962 303.042 C 117.067 302.799,117.551 301.351,118.038 299.824 C 118.783 297.489,119.270 296.727,121.105 295.024 C 125.078 291.338,129.386 287.221,130.400 286.142 C 130.950 285.556,132.277 284.250,133.349 283.239 C 135.531 281.181,137.650 279.068,138.940 277.663 C 139.413 277.147,140.745 276.017,141.900 275.150 C 143.055 274.284,144.000 273.401,144.000 273.189 C 144.000 272.658,146.800 269.600,147.285 269.600 C 148.116 269.600,149.931 267.953,150.560 266.627 C 150.923 265.863,151.967 264.734,152.879 264.119 C 154.706 262.888,156.495 261.160,157.941 259.230 C 158.459 258.539,159.598 257.609,160.474 257.162 C 161.349 256.716,162.366 255.795,162.733 255.116 C 163.702 253.323,165.597 251.200,166.228 251.200 C 167.022 251.200,169.517 248.896,169.828 247.875 C 170.232 246.549,171.220 245.597,173.119 244.703 C 174.265 244.164,175.085 243.412,175.580 242.447 C 176.444 240.762,177.684 239.554,179.482 238.646 C 180.746 238.007,181.167 237.539,182.915 234.826 C 183.417 234.046,184.665 233.008,185.800 232.426 C 187.303 231.655,188.019 230.965,188.682 229.651 C 189.763 227.509,190.643 226.504,191.745 226.154 C 193.256 225.674,194.759 224.298,195.007 223.166 C 195.300 221.833,195.881 221.314,198.545 220.000 C 200.073 219.247,200.775 218.594,201.387 217.357 C 202.813 214.476,202.947 214.400,206.600 214.400 C 208.907 214.400,210.039 214.565,210.357 214.948 " stroke="none" fill="#ea3e4c" fill-rule="evenodd"></path><path id="path4" d="M205.800 210.773 C 202.192 211.086,200.689 211.932,198.972 214.616 C 198.089 215.997,197.020 217.080,196.052 217.574 C 194.449 218.391,192.632 220.285,191.572 222.241 C 191.219 222.893,190.126 223.806,189.073 224.328 C 187.762 224.978,186.887 225.791,186.153 227.044 C 185.520 228.125,184.520 229.131,183.625 229.587 C 182.811 230.003,181.527 231.083,180.772 231.988 C 178.914 234.217,177.512 235.623,176.057 236.715 C 175.387 237.218,174.259 238.523,173.552 239.615 C 172.772 240.818,171.973 241.600,171.524 241.600 C 170.829 241.600,166.936 245.081,166.155 246.401 C 165.960 246.732,164.765 247.789,163.500 248.750 C 162.235 249.711,161.200 250.627,161.200 250.786 C 161.200 251.217,157.532 254.889,152.595 259.400 C 150.188 261.600,145.582 266.055,142.360 269.300 C 139.139 272.545,136.342 275.200,136.145 275.200 C 135.822 275.200,128.780 282.043,124.545 286.470 C 122.728 288.370,116.956 293.773,114.895 295.504 C 113.777 296.443,113.483 297.096,112.841 300.069 L 112.093 303.539 113.146 304.521 C 116.118 307.289,112.923 307.198,206.573 307.199 C 298.766 307.200,296.312 307.262,298.679 304.894 C 299.692 303.881,300.007 303.274,299.840 302.652 C 299.714 302.184,299.608 300.680,299.605 299.311 C 299.600 296.969,299.516 296.746,298.165 295.511 C 297.376 294.790,294.175 291.680,291.053 288.600 C 287.930 285.520,284.617 282.400,283.689 281.668 C 282.762 280.935,281.437 279.547,280.745 278.583 C 280.053 277.620,278.807 276.382,277.976 275.832 C 277.146 275.282,273.875 272.260,270.708 269.116 C 264.265 262.720,249.722 248.731,249.126 248.358 C 248.914 248.225,245.919 245.364,242.470 242.001 C 239.022 238.638,233.410 233.196,230.000 229.909 C 226.590 226.621,222.064 222.237,219.943 220.166 C 217.822 218.095,215.901 216.400,215.676 216.400 C 215.450 216.400,214.867 215.755,214.380 214.968 C 213.419 213.413,209.815 210.360,209.064 210.465 C 208.809 210.500,207.340 210.639,205.800 210.773 M212.394 215.588 C 213.827 217.121,215.581 218.802,216.290 219.323 C 217.000 219.844,218.325 221.206,219.235 222.349 C 220.145 223.491,221.467 224.668,222.172 224.963 C 222.878 225.257,223.893 226.073,224.428 226.776 C 225.644 228.374,233.347 236.077,237.451 239.800 C 239.149 241.340,241.632 243.751,242.969 245.158 C 244.306 246.565,246.202 248.455,247.183 249.358 C 248.163 250.261,251.024 252.980,253.540 255.400 C 256.056 257.820,259.359 260.970,260.879 262.400 C 262.400 263.830,265.950 267.250,268.769 270.000 C 271.588 272.750,274.664 275.630,275.605 276.400 C 276.545 277.170,277.783 278.334,278.357 278.987 C 279.647 280.456,282.233 283.050,283.813 284.460 C 284.466 285.043,285.741 286.332,286.647 287.325 C 287.553 288.318,289.017 289.498,289.900 289.949 C 290.885 290.451,291.598 291.139,291.746 291.727 C 291.974 292.635,294.339 294.999,296.501 296.478 C 297.374 297.075,297.517 297.528,297.705 300.278 C 298.106 306.135,307.276 305.600,206.507 305.600 C 120.706 305.600,118.300 305.562,115.554 304.167 L 114.508 303.635 115.154 300.451 C 115.700 297.759,115.986 297.127,117.000 296.368 C 118.260 295.424,119.106 294.616,130.400 283.582 C 134.250 279.820,138.020 276.260,138.777 275.671 C 139.534 275.082,142.881 271.900,146.214 268.600 C 149.547 265.300,155.384 259.630,159.185 256.000 C 162.986 252.370,167.186 248.269,168.519 246.887 C 169.851 245.504,171.795 243.760,172.837 243.012 C 173.880 242.263,174.973 241.157,175.266 240.554 C 175.560 239.951,176.843 238.634,178.117 237.629 C 179.391 236.623,180.867 235.148,181.397 234.351 C 181.926 233.554,183.223 232.337,184.280 231.646 C 185.336 230.955,186.928 229.450,187.817 228.303 C 188.706 227.155,190.146 225.735,191.017 225.147 C 191.888 224.559,193.153 223.296,193.829 222.339 C 194.505 221.383,195.991 219.970,197.133 219.200 C 198.274 218.430,199.503 217.350,199.863 216.800 C 202.072 213.434,203.135 212.800,206.575 212.800 L 209.788 212.800 212.394 215.588 " stroke="none" fill="#ed6c78" fill-rule="evenodd"></path><path id="path5" d="M102.749 117.662 C 101.931 120.847,101.931 285.953,102.749 289.138 L 103.298 291.276 105.149 291.018 C 108.839 290.503,109.600 290.303,109.600 289.847 C 109.600 288.943,112.102 286.363,113.830 285.485 C 115.088 284.846,115.951 283.979,116.891 282.413 C 117.913 280.709,118.652 280.007,120.260 279.215 C 121.593 278.558,122.411 277.872,122.575 277.272 C 122.937 275.952,125.379 273.635,126.998 273.074 C 128.072 272.702,128.617 272.117,129.486 270.399 C 130.415 268.566,130.954 268.021,132.728 267.121 C 134.461 266.243,135.043 265.670,135.856 264.037 C 136.684 262.375,137.229 261.849,139.031 260.968 C 140.766 260.118,141.354 259.570,141.945 258.252 C 142.801 256.339,143.593 255.570,145.767 254.542 C 146.903 254.004,147.625 253.250,148.390 251.800 C 149.253 250.165,149.876 249.578,151.800 248.584 C 153.598 247.655,154.287 247.040,154.713 245.984 C 155.468 244.109,156.694 242.834,158.554 241.987 C 159.664 241.482,160.406 240.730,161.154 239.352 C 161.976 237.836,162.658 237.195,164.343 236.355 C 166.135 235.462,166.662 234.936,167.555 233.148 C 168.466 231.325,168.960 230.844,170.903 229.882 C 172.786 228.950,173.318 228.448,173.958 227.002 C 174.542 225.681,175.159 225.037,176.466 224.380 C 178.485 223.366,180.000 222.072,180.000 221.361 C 180.000 220.433,182.101 218.357,183.892 217.515 C 184.949 217.018,185.853 216.255,186.117 215.639 C 187.002 213.569,188.159 212.285,189.788 211.564 C 190.755 211.136,191.681 210.364,192.004 209.715 C 193.082 207.550,194.464 205.984,195.974 205.213 C 198.561 203.894,198.411 203.091,195.200 201.064 C 194.329 200.514,193.346 199.307,192.599 197.870 C 191.635 196.017,191.064 195.411,189.710 194.805 C 188.508 194.267,187.672 193.479,186.801 192.064 C 185.939 190.662,185.070 189.839,183.846 189.264 C 182.066 188.427,180.000 186.354,180.000 185.405 C 180.000 184.719,178.064 183.089,176.460 182.425 C 175.564 182.054,174.911 181.289,174.136 179.704 C 173.306 178.009,172.727 177.362,171.628 176.904 C 169.287 175.928,167.959 174.781,167.257 173.128 C 166.734 171.895,166.132 171.337,164.397 170.473 C 162.600 169.578,161.994 168.997,161.071 167.283 C 160.299 165.850,159.477 164.949,158.471 164.436 C 156.658 163.511,155.638 162.412,154.600 160.267 C 153.985 158.997,153.512 158.557,152.556 158.369 C 150.707 158.005,149.520 157.022,148.366 154.901 C 147.606 153.503,146.865 152.775,145.566 152.148 C 143.408 151.107,142.484 150.120,141.801 148.126 C 141.375 146.884,140.873 146.393,139.099 145.487 C 137.453 144.646,136.680 143.937,135.939 142.590 C 135.196 141.239,134.432 140.541,132.780 139.704 C 130.949 138.777,130.422 138.248,129.486 136.401 C 128.619 134.687,128.071 134.097,127.005 133.728 C 125.416 133.178,123.411 131.129,122.756 129.384 C 122.429 128.513,121.807 127.965,120.561 127.449 C 118.691 126.676,116.552 124.544,116.187 123.090 C 116.039 122.503,115.346 121.939,114.177 121.456 C 112.445 120.739,109.600 117.952,109.600 116.973 C 109.600 116.498,108.857 116.300,105.149 115.782 L 103.298 115.524 102.749 117.662 " stroke="none" fill="#ee7700" fill-rule="evenodd"></path><path id="path6" d="" stroke="none" fill="#9999ff" fill-rule="evenodd"></path><path id="path7" d="M102.117 112.500 C 99.588 115.265,99.800 106.953,99.800 203.400 L 99.800 290.600 100.846 292.206 C 102.617 294.926,102.800 295.000,106.449 294.441 C 111.086 293.731,111.803 294.751,110.613 300.361 C 109.808 304.159,110.421 305.649,113.426 307.195 L 115.379 308.200 206.189 308.200 L 297.000 308.200 298.399 307.378 C 303.294 304.503,302.857 295.602,297.673 292.593 C 296.298 291.795,295.234 290.802,294.663 289.784 C 294.135 288.843,292.856 287.598,291.491 286.694 C 290.033 285.729,289.004 284.704,288.655 283.871 C 288.084 282.504,285.896 280.400,285.044 280.400 C 284.496 280.400,282.400 278.352,282.400 277.816 C 282.400 277.051,280.305 274.800,279.594 274.800 C 278.535 274.800,275.994 272.483,275.342 270.923 C 275.015 270.139,274.010 269.117,272.780 268.317 C 271.577 267.534,270.273 266.219,269.566 265.075 C 268.911 264.016,267.796 262.846,267.088 262.475 C 266.380 262.104,264.603 260.630,263.141 259.200 C 261.678 257.770,259.830 256.007,259.035 255.283 C 258.239 254.559,257.144 253.261,256.600 252.400 C 256.056 251.539,255.204 250.617,254.706 250.352 C 253.057 249.474,250.777 247.457,249.983 246.172 C 249.553 245.476,248.526 244.456,247.700 243.905 C 246.875 243.354,242.150 238.937,237.200 234.090 C 232.250 229.242,226.084 223.234,223.497 220.738 C 220.910 218.242,217.760 215.147,216.497 213.861 C 215.234 212.574,213.128 210.728,211.817 209.759 L 209.434 207.996 205.728 208.256 C 201.086 208.582,200.800 208.397,200.799 205.051 C 200.799 202.002,199.920 200.135,197.859 198.807 C 196.958 198.226,195.939 197.064,195.403 196.007 C 194.355 193.941,193.611 193.203,191.504 192.141 C 190.496 191.633,189.714 190.802,189.104 189.594 C 188.448 188.292,187.720 187.558,186.451 186.918 C 184.204 185.784,183.258 184.912,182.621 183.389 C 182.021 181.952,179.843 180.000,178.839 180.000 C 177.927 180.000,176.729 178.618,175.822 176.520 C 175.281 175.268,174.810 174.778,173.967 174.593 C 172.293 174.225,170.868 172.935,169.930 170.940 C 169.250 169.494,168.681 168.963,166.848 168.064 C 164.984 167.149,164.429 166.623,163.600 164.981 C 162.822 163.440,162.169 162.778,160.659 162.000 C 159.203 161.249,158.441 160.501,157.607 159.000 C 156.725 157.414,156.020 156.751,154.194 155.798 C 152.329 154.823,151.695 154.217,150.847 152.598 C 150.061 151.098,149.375 150.396,148.096 149.781 C 145.969 148.760,145.253 148.049,144.219 145.935 C 143.761 145.000,142.870 143.980,142.200 143.626 C 140.312 142.628,138.400 141.094,138.400 140.579 C 138.400 139.670,136.735 138.005,134.921 137.100 C 133.525 136.404,132.840 135.712,132.044 134.193 C 131.263 132.702,130.554 131.975,129.229 131.307 C 126.896 130.130,125.200 128.466,125.200 127.354 C 125.200 126.373,123.488 124.800,122.421 124.800 C 121.581 124.800,119.765 122.934,118.875 121.156 C 118.439 120.284,117.508 119.444,116.245 118.779 C 114.232 117.722,112.400 115.943,112.400 115.047 C 112.400 113.876,110.489 112.778,107.432 112.194 C 103.385 111.419,103.089 111.436,102.117 112.500 M108.300 116.265 C 109.015 116.388,109.600 116.707,109.600 116.973 C 109.600 117.952,112.445 120.739,114.177 121.456 C 115.346 121.939,116.039 122.503,116.187 123.090 C 116.552 124.544,118.691 126.676,120.561 127.449 C 121.807 127.965,122.429 128.513,122.756 129.384 C 123.411 131.129,125.416 133.178,127.005 133.728 C 128.071 134.097,128.619 134.687,129.486 136.401 C 130.422 138.248,130.949 138.777,132.780 139.704 C 134.432 140.541,135.196 141.239,135.939 142.590 C 136.680 143.937,137.453 144.646,139.099 145.487 C 140.873 146.393,141.375 146.884,141.801 148.126 C 142.484 150.120,143.408 151.107,145.566 152.148 C 146.865 152.775,147.606 153.503,148.366 154.901 C 149.520 157.022,150.707 158.005,152.556 158.369 C 153.512 158.557,153.985 158.997,154.600 160.267 C 155.638 162.412,156.658 163.511,158.471 164.436 C 159.477 164.949,160.299 165.850,161.071 167.283 C 161.994 168.997,162.600 169.578,164.397 170.473 C 166.132 171.337,166.734 171.895,167.257 173.128 C 167.959 174.781,169.287 175.928,171.628 176.904 C 172.727 177.362,173.306 178.009,174.136 179.704 C 174.911 181.289,175.564 182.054,176.460 182.425 C 178.064 183.089,180.000 184.719,180.000 185.405 C 180.000 186.354,182.066 188.427,183.846 189.264 C 185.070 189.839,185.939 190.662,186.801 192.064 C 187.672 193.479,188.508 194.267,189.710 194.805 C 191.064 195.411,191.635 196.017,192.599 197.870 C 193.346 199.307,194.329 200.514,195.200 201.064 C 198.411 203.091,198.561 203.894,195.974 205.213 C 194.464 205.984,193.082 207.550,192.004 209.715 C 191.681 210.364,190.755 211.136,189.788 211.564 C 188.159 212.285,187.002 213.569,186.117 215.639 C 185.853 216.255,184.949 217.018,183.892 217.515 C 182.101 218.357,180.000 220.433,180.000 221.361 C 180.000 222.072,178.485 223.366,176.466 224.380 C 175.159 225.037,174.542 225.681,173.958 227.002 C 173.318 228.448,172.786 228.950,170.903 229.882 C 168.960 230.844,168.466 231.325,167.555 233.148 C 166.662 234.936,166.135 235.462,164.343 236.355 C 162.658 237.195,161.976 237.836,161.154 239.352 C 160.406 240.730,159.664 241.482,158.554 241.987 C 156.694 242.834,155.468 244.109,154.713 245.984 C 154.287 247.040,153.598 247.655,151.800 248.584 C 149.876 249.578,149.253 250.165,148.390 251.800 C 147.625 253.250,146.903 254.004,145.767 254.542 C 143.593 255.570,142.801 256.339,141.945 258.252 C 141.354 259.570,140.766 260.118,139.031 260.968 C 137.229 261.849,136.684 262.375,135.856 264.037 C 135.043 265.670,134.461 266.243,132.728 267.121 C 130.954 268.021,130.415 268.566,129.486 270.399 C 128.617 272.117,128.072 272.702,126.998 273.074 C 125.379 273.635,122.937 275.952,122.575 277.272 C 122.411 277.872,121.593 278.558,120.260 279.215 C 118.652 280.007,117.913 280.709,116.891 282.413 C 115.951 283.979,115.088 284.846,113.830 285.485 C 112.102 286.363,109.600 288.943,109.600 289.847 C 109.600 290.303,108.839 290.503,105.149 291.018 L 103.298 291.276 102.749 289.138 C 101.931 285.953,101.931 120.847,102.749 117.662 L 103.298 115.524 105.149 115.782 C 106.167 115.924,107.585 116.141,108.300 116.265 M200.702 209.100 C 200.793 209.375,200.595 209.600,200.264 209.600 C 199.397 209.600,197.202 211.551,197.187 212.336 C 197.176 212.906,197.092 212.890,196.587 212.224 C 195.978 211.419,195.786 209.147,196.285 208.649 C 196.760 208.173,200.523 208.558,200.702 209.100 M211.512 211.968 C 212.602 212.830,213.893 214.180,214.380 214.968 C 214.867 215.755,215.450 216.400,215.676 216.400 C 215.901 216.400,217.822 218.095,219.943 220.166 C 222.064 222.237,226.590 226.621,230.000 229.909 C 233.410 233.196,239.022 238.638,242.470 242.001 C 245.919 245.364,248.914 248.225,249.126 248.358 C 249.722 248.731,264.265 262.720,270.708 269.116 C 273.875 272.260,277.146 275.282,277.976 275.832 C 278.807 276.382,280.053 277.620,280.745 278.583 C 281.437 279.547,282.762 280.935,283.689 281.668 C 284.617 282.400,287.930 285.520,291.053 288.600 C 294.175 291.680,297.376 294.790,298.165 295.511 C 299.516 296.746,299.600 296.969,299.605 299.311 C 299.608 300.680,299.714 302.184,299.840 302.652 C 300.007 303.274,299.692 303.881,298.679 304.894 C 296.312 307.262,298.766 307.200,206.573 307.199 C 112.923 307.198,116.118 307.289,113.146 304.521 L 112.093 303.539 112.841 300.069 C 113.483 297.096,113.777 296.443,114.895 295.504 C 116.956 293.773,122.728 288.370,124.545 286.470 C 128.780 282.043,135.822 275.200,136.145 275.200 C 136.342 275.200,139.139 272.545,142.360 269.300 C 145.582 266.055,150.188 261.600,152.595 259.400 C 157.532 254.889,161.200 251.217,161.200 250.786 C 161.200 250.627,162.235 249.711,163.500 248.750 C 164.765 247.789,165.960 246.732,166.155 246.401 C 166.936 245.081,170.829 241.600,171.524 241.600 C 171.973 241.600,172.772 240.818,173.552 239.615 C 174.259 238.523,175.387 237.218,176.057 236.715 C 177.512 235.623,178.914 234.217,180.772 231.988 C 181.527 231.083,182.811 230.003,183.625 229.587 C 184.520 229.131,185.520 228.125,186.153 227.044 C 186.887 225.791,187.762 224.978,189.073 224.328 C 190.126 223.806,191.219 222.893,191.572 222.241 C 192.632 220.285,194.449 218.391,196.052 217.574 C 197.020 217.080,198.089 215.997,198.972 214.616 C 200.689 211.932,202.192 211.086,205.800 210.773 C 207.340 210.639,208.809 210.500,209.064 210.465 C 209.319 210.429,210.421 211.105,211.512 211.968 M193.545 215.385 C 194.002 215.833,193.950 215.962,193.217 216.195 C 192.737 216.347,192.008 217.025,191.597 217.701 L 190.849 218.931 190.155 217.474 C 188.961 214.971,191.513 213.398,193.545 215.385 M186.698 221.413 L 187.573 222.026 185.944 223.499 C 184.382 224.910,184.291 224.939,183.757 224.209 C 182.202 222.083,184.514 219.884,186.698 221.413 M180.506 227.515 C 181.175 228.103,181.159 228.171,180.200 228.800 C 179.643 229.165,178.965 229.761,178.694 230.125 C 178.128 230.882,177.535 230.608,176.826 229.262 C 175.726 227.175,178.578 225.821,180.506 227.515 M174.192 233.665 L 175.291 234.530 174.256 235.072 C 173.686 235.371,173.028 235.974,172.793 236.413 C 172.275 237.380,171.011 236.895,170.589 235.566 C 169.964 233.595,172.440 232.287,174.192 233.665 M167.777 239.975 C 168.517 240.792,168.329 241.600,167.399 241.600 C 167.095 241.600,166.578 241.981,166.252 242.447 L 165.658 243.295 164.584 242.221 L 163.510 241.147 164.425 240.173 C 165.527 239.001,166.826 238.924,167.777 239.975 M161.067 245.830 L 162.097 246.861 160.749 248.014 C 158.533 249.909,156.715 248.367,158.390 246.014 C 159.443 244.535,159.750 244.514,161.067 245.830 M154.907 251.900 C 155.929 253.035,155.870 253.412,154.493 254.577 C 153.033 255.813,151.200 255.280,151.200 253.620 C 151.200 251.932,153.835 250.710,154.907 251.900 M148.500 258.157 C 149.463 258.887,149.386 259.272,148.018 260.583 C 146.701 261.845,144.800 261.287,144.800 259.640 C 144.800 258.128,147.197 257.168,148.500 258.157 M142.023 264.100 C 143.418 265.772,141.782 268.430,139.889 267.568 C 138.279 266.834,138.219 266.025,139.665 264.533 C 141.199 262.950,141.081 262.972,142.023 264.100 M135.440 269.906 C 137.248 271.114,136.031 274.806,134.054 274.109 C 131.871 273.339,131.640 272.421,133.231 270.831 C 134.535 269.526,134.742 269.440,135.440 269.906 M129.734 276.898 L 130.553 277.996 129.429 279.170 C 128.460 280.181,128.159 280.290,127.252 279.954 C 125.244 279.210,125.041 278.402,126.488 276.909 C 127.978 275.372,128.595 275.370,129.734 276.898 M123.934 283.582 C 124.797 286.059,120.991 287.316,119.515 285.041 C 119.357 284.797,119.874 283.944,120.678 283.120 C 122.333 281.426,123.226 281.552,123.934 283.582 M117.231 289.481 C 117.991 291.481,116.456 292.744,114.178 291.993 C 112.440 291.419,112.450 291.028,114.245 289.384 C 115.828 287.934,116.653 287.961,117.231 289.481 " stroke="none" fill="#f1af6e" fill-rule="evenodd"></path><path id="path8" d="M117.870 102.191 C 116.588 102.472,115.384 102.858,115.195 103.050 C 114.612 103.644,116.099 109.600,116.830 109.600 C 117.020 109.600,120.022 112.435,123.501 115.900 C 126.979 119.365,130.630 122.904,131.613 123.764 C 133.799 125.678,141.258 132.889,143.269 135.034 C 145.407 137.314,151.875 143.242,153.448 144.364 C 154.192 144.894,155.514 146.273,156.386 147.428 C 157.258 148.583,158.653 150.022,159.486 150.627 C 160.318 151.232,161.662 152.579,162.472 153.620 C 163.281 154.661,164.913 156.190,166.098 157.018 C 167.284 157.847,168.652 159.132,169.139 159.875 C 169.626 160.618,171.021 161.863,172.239 162.642 C 173.888 163.697,174.641 164.496,175.188 165.771 C 175.725 167.026,176.456 167.812,177.921 168.713 C 179.020 169.390,180.253 170.421,180.660 171.005 C 182.219 173.241,183.706 174.800,184.280 174.800 C 185.323 174.800,187.191 176.414,188.014 178.028 C 188.452 178.886,189.303 179.893,189.905 180.266 C 191.757 181.413,193.633 183.328,194.441 184.896 C 194.975 185.933,195.819 186.700,197.184 187.392 C 198.441 188.029,199.601 189.038,200.385 190.178 C 202.977 193.945,208.356 194.625,211.519 191.585 C 212.444 190.697,213.200 189.827,213.200 189.652 C 213.200 189.476,214.188 188.653,215.395 187.821 C 216.602 186.990,218.216 185.438,218.981 184.373 C 219.746 183.308,220.874 182.125,221.486 181.745 C 223.303 180.618,224.815 179.085,225.470 177.706 C 225.809 176.995,226.741 176.020,227.543 175.541 C 228.344 175.061,230.497 173.213,232.326 171.434 C 237.558 166.348,241.754 162.156,243.468 160.304 C 244.335 159.367,245.754 158.069,246.622 157.421 C 247.490 156.772,251.350 153.070,255.200 149.194 C 259.050 145.317,262.521 141.967,262.914 141.749 C 263.307 141.531,266.567 138.438,270.160 134.876 C 273.752 131.314,276.893 128.400,277.140 128.400 C 277.387 128.400,278.049 127.705,278.611 126.855 C 279.174 126.005,280.661 124.550,281.917 123.622 C 283.173 122.694,284.835 121.094,285.611 120.067 C 286.387 119.040,287.962 117.660,289.111 117.000 C 290.482 116.212,291.285 115.457,291.449 114.800 C 291.763 113.546,294.563 110.595,296.007 109.997 C 297.014 109.580,297.115 109.323,297.369 106.515 C 297.691 102.966,297.643 102.893,294.536 102.162 C 291.211 101.380,121.453 101.408,117.870 102.191 " stroke="none" fill="#fabe00" fill-rule="evenodd"></path><path id="path9" d="M148.114 1.800 C 148.117 2.900,148.195 3.303,148.287 2.695 C 148.379 2.086,148.377 1.186,148.282 0.695 C 148.187 0.203,148.111 0.700,148.114 1.800 M252.114 1.800 C 252.117 2.900,252.195 3.303,252.287 2.695 C 252.379 2.086,252.377 1.186,252.282 0.695 C 252.187 0.203,252.111 0.700,252.114 1.800 M0.905 148.687 C 1.514 148.779,2.414 148.777,2.905 148.682 C 3.397 148.587,2.900 148.511,1.800 148.514 C 0.700 148.517,0.297 148.595,0.905 148.687 M205.400 207.616 C 203.640 207.784,202.065 207.838,201.900 207.737 C 201.735 207.636,201.600 207.770,201.600 208.037 C 201.600 208.399,202.577 208.456,205.507 208.264 L 209.414 208.008 211.407 209.424 C 213.339 210.797,215.242 212.587,223.705 221.000 C 226.987 224.263,227.167 223.803,223.918 220.453 C 217.506 213.840,209.935 207.146,209.000 207.262 C 208.780 207.289,207.160 207.449,205.400 207.616 M232.087 228.900 C 234.352 231.155,238.134 234.917,240.491 237.259 C 242.849 239.602,244.525 241.029,244.217 240.432 C 243.908 239.835,242.428 238.278,240.927 236.973 C 239.427 235.668,238.126 234.420,238.036 234.200 C 237.945 233.980,237.296 233.260,236.594 232.600 C 234.142 230.298,231.391 227.567,230.134 226.189 C 229.438 225.425,228.666 224.800,228.419 224.800 C 228.171 224.800,229.822 226.645,232.087 228.900 M245.777 242.313 C 246.200 242.815,247.135 243.589,247.854 244.033 C 248.572 244.477,249.532 245.443,249.987 246.179 C 250.442 246.915,251.646 248.121,252.663 248.859 C 254.613 250.274,256.007 251.598,257.512 253.467 C 258.115 254.215,258.023 253.943,257.243 252.670 C 256.593 251.608,255.282 250.225,254.330 249.597 C 251.756 247.897,250.955 247.137,250.236 245.707 C 249.879 244.995,249.005 244.119,248.293 243.760 C 247.582 243.401,246.551 242.722,246.003 242.253 L 245.006 241.400 245.777 242.313 M259.400 255.711 C 260.060 256.200,261.770 257.770,263.200 259.200 C 264.630 260.630,266.381 262.104,267.092 262.477 C 267.802 262.849,268.746 263.749,269.190 264.477 C 270.178 266.097,270.277 265.598,269.300 263.923 C 268.915 263.263,267.741 262.285,266.691 261.750 C 265.485 261.136,264.263 260.054,263.370 258.811 C 262.528 257.640,261.197 256.435,260.078 255.833 C 258.452 254.958,258.361 254.941,259.400 255.711 M272.023 267.756 C 272.712 268.445,275.200 269.916,275.200 269.634 C 275.200 269.446,274.795 269.033,274.300 268.716 C 273.370 268.121,271.672 267.405,272.023 267.756 M275.200 270.829 C 275.200 271.499,278.578 274.803,279.247 274.788 C 279.577 274.781,279.477 274.598,279.000 274.334 C 277.750 273.645,276.000 271.903,276.000 271.349 C 276.000 271.073,275.820 270.736,275.600 270.600 C 275.380 270.464,275.200 270.567,275.200 270.829 M135.429 273.162 L 134.258 274.600 135.609 273.313 C 136.351 272.605,136.878 271.958,136.779 271.875 C 136.681 271.792,136.073 272.371,135.429 273.162 M281.268 276.006 C 281.749 276.657,282.213 277.120,282.299 277.034 C 282.546 276.788,281.472 275.237,280.905 275.019 C 280.623 274.911,280.786 275.355,281.268 276.006 M129.029 279.162 L 127.858 280.600 129.209 279.313 C 129.951 278.605,130.478 277.958,130.379 277.875 C 130.281 277.792,129.673 278.371,129.029 279.162 M282.400 277.959 C 282.400 278.331,284.754 280.599,284.903 280.371 C 284.964 280.277,284.426 279.630,283.707 278.934 C 282.988 278.238,282.400 277.799,282.400 277.959 M286.824 281.481 C 287.530 282.076,288.344 283.125,288.631 283.813 C 288.919 284.501,289.479 285.316,289.877 285.625 C 290.560 286.155,290.564 286.142,289.947 285.393 C 289.588 284.957,289.174 284.204,289.027 283.720 C 288.700 282.648,286.657 280.400,286.009 280.400 C 285.750 280.400,286.117 280.887,286.824 281.481 M290.800 286.150 C 290.800 286.244,291.428 286.692,292.196 287.145 C 292.964 287.598,293.954 288.561,294.395 289.284 C 295.252 290.691,295.511 290.530,294.735 289.074 C 294.136 287.951,290.800 285.472,290.800 286.150 M298.723 293.210 C 299.461 293.660,300.402 294.765,300.850 295.708 C 301.516 297.109,301.613 297.194,301.413 296.200 C 301.164 294.960,298.799 292.399,297.906 292.401 C 297.628 292.402,297.995 292.766,298.723 293.210 M110.003 304.208 C 110.733 306.127,112.925 308.000,114.443 308.000 C 114.709 308.000,114.151 307.591,113.205 307.090 C 112.221 306.570,111.180 305.612,110.773 304.855 C 109.811 303.060,109.452 302.759,110.003 304.208 M300.716 305.217 C 300.348 305.859,299.451 306.746,298.723 307.190 C 297.174 308.135,297.510 308.274,299.213 307.393 C 299.858 307.060,300.673 306.233,301.023 305.556 C 301.844 303.968,301.593 303.690,300.716 305.217 M116.305 308.283 C 116.802 308.379,117.522 308.375,117.905 308.275 C 118.287 308.175,117.880 308.096,117.000 308.101 C 116.120 308.105,115.807 308.187,116.305 308.283 M294.700 308.282 C 295.195 308.378,296.005 308.378,296.500 308.282 C 296.995 308.187,296.590 308.109,295.600 308.109 C 294.610 308.109,294.205 308.187,294.700 308.282 M148.109 398.400 C 148.109 399.390,148.187 399.795,148.282 399.300 C 148.378 398.805,148.378 397.995,148.282 397.500 C 148.187 397.005,148.109 397.410,148.109 398.400 M252.109 398.400 C 252.109 399.390,252.187 399.795,252.282 399.300 C 252.378 398.805,252.378 397.995,252.282 397.500 C 252.187 397.005,252.109 397.410,252.109 398.400 " stroke="none" fill="#c6c6ff" fill-rule="evenodd"></path><path id="path10" d="" stroke="none" fill="#00ffff" fill-rule="evenodd"></path><path id="path11" d="M114.797 98.774 C 110.521 100.075,109.355 101.963,110.103 106.378 C 110.607 109.353,110.596 109.611,109.958 109.813 C 109.070 110.095,107.275 109.646,106.895 109.046 C 104.880 105.870,99.752 108.123,98.341 112.805 C 97.554 115.417,97.534 290.922,98.321 293.520 C 98.869 295.329,102.494 299.600,103.482 299.600 C 104.736 299.600,105.906 300.849,106.164 302.463 C 106.560 304.943,109.705 308.013,112.282 308.437 C 114.569 308.813,296.649 308.915,299.373 308.542 C 302.147 308.161,302.566 307.305,302.745 301.638 C 302.994 293.818,302.055 291.600,298.498 291.600 C 296.673 291.600,296.618 291.540,296.218 289.129 C 295.870 287.029,294.855 285.992,292.583 285.416 C 291.173 285.058,290.566 284.694,290.482 284.156 C 289.948 280.727,288.457 279.243,285.019 278.716 C 284.471 278.632,284.112 278.092,283.819 276.906 C 283.274 274.706,282.180 273.665,279.764 273.049 C 278.125 272.631,277.744 272.354,277.454 271.374 C 276.453 267.981,275.951 267.436,273.007 266.546 C 272.181 266.297,271.703 265.819,271.453 264.993 C 270.607 262.197,270.227 261.531,269.164 260.981 C 268.545 260.662,267.626 260.394,267.120 260.387 C 265.945 260.371,264.800 259.507,264.800 258.636 C 264.800 256.626,262.435 254.400,260.300 254.400 C 258.958 254.400,258.400 253.666,258.400 251.902 C 258.400 249.928,257.053 248.514,254.835 248.159 C 252.971 247.861,252.711 247.598,252.073 245.365 C 251.484 243.299,250.490 242.401,248.134 241.802 C 246.416 241.366,246.227 241.193,245.766 239.632 C 245.121 237.445,244.243 236.505,242.307 235.925 C 240.689 235.440,239.600 234.321,239.600 233.142 C 239.600 231.986,237.627 230.038,236.017 229.605 C 234.235 229.125,233.811 228.690,233.115 226.629 C 232.599 225.102,232.298 224.873,228.342 223.007 C 227.281 222.506,226.819 221.994,226.645 221.126 C 226.262 219.210,224.925 217.660,223.410 217.375 C 221.841 217.081,221.021 216.275,220.633 214.649 C 220.268 213.113,218.346 211.249,216.814 210.943 C 215.564 210.693,214.750 209.880,213.538 207.674 C 212.473 205.733,211.126 205.121,207.112 204.750 C 203.332 204.401,202.631 204.036,202.989 202.600 C 203.099 202.160,203.192 201.305,203.195 200.700 L 203.200 199.600 206.224 199.600 L 209.248 199.600 214.924 194.525 C 218.046 191.733,223.855 186.153,227.834 182.125 C 231.812 178.096,235.364 174.800,235.728 174.800 C 236.091 174.800,236.865 174.080,237.447 173.200 C 238.030 172.320,238.617 171.599,238.753 171.598 C 239.166 171.595,243.728 167.082,244.891 165.525 C 245.491 164.722,246.744 163.553,247.675 162.928 C 248.606 162.303,249.826 161.116,250.387 160.290 C 250.948 159.464,252.383 158.202,253.576 157.485 C 255.022 156.618,256.303 155.384,257.416 153.791 C 258.335 152.476,259.484 151.198,259.969 150.950 C 261.160 150.343,263.200 148.356,263.200 147.804 C 263.200 147.166,265.637 144.937,266.675 144.625 C 267.492 144.380,268.487 143.347,270.705 140.445 C 271.203 139.794,272.283 138.932,273.105 138.530 C 274.149 138.021,274.902 137.215,275.600 135.861 C 276.358 134.392,277.133 133.610,278.800 132.634 C 280.010 131.926,281.395 130.728,281.877 129.973 C 283.349 127.670,284.437 126.400,284.938 126.400 C 285.943 126.400,288.441 124.299,289.105 122.896 C 289.487 122.089,290.430 121.023,291.200 120.529 C 294.058 118.693,294.482 118.275,295.211 116.574 C 295.807 115.185,296.365 114.628,297.993 113.804 C 303.405 111.061,303.172 100.341,297.667 98.812 C 295.930 98.330,116.381 98.292,114.797 98.774 M294.536 102.162 C 297.643 102.893,297.691 102.966,297.369 106.515 C 297.115 109.323,297.014 109.580,296.007 109.997 C 294.563 110.595,291.763 113.546,291.449 114.800 C 291.285 115.457,290.482 116.212,289.111 117.000 C 287.962 117.660,286.387 119.040,285.611 120.067 C 284.835 121.094,283.173 122.694,281.917 123.622 C 280.661 124.550,279.174 126.005,278.611 126.855 C 278.049 127.705,277.387 128.400,277.140 128.400 C 276.893 128.400,273.752 131.314,270.160 134.876 C 266.567 138.438,263.307 141.531,262.914 141.749 C 262.521 141.967,259.050 145.317,255.200 149.194 C 251.350 153.070,247.490 156.772,246.622 157.421 C 245.754 158.069,244.335 159.367,243.468 160.304 C 241.754 162.156,237.558 166.348,232.326 171.434 C 230.497 173.213,228.344 175.061,227.543 175.541 C 226.741 176.020,225.809 176.995,225.470 177.706 C 224.815 179.085,223.303 180.618,221.486 181.745 C 220.874 182.125,219.746 183.308,218.981 184.373 C 218.216 185.438,216.602 186.990,215.395 187.821 C 214.188 188.653,213.200 189.476,213.200 189.652 C 213.200 189.827,212.444 190.697,211.519 191.585 C 208.356 194.625,202.977 193.945,200.385 190.178 C 199.601 189.038,198.441 188.029,197.184 187.392 C 195.819 186.700,194.975 185.933,194.441 184.896 C 193.633 183.328,191.757 181.413,189.905 180.266 C 189.303 179.893,188.452 178.886,188.014 178.028 C 187.191 176.414,185.323 174.800,184.280 174.800 C 183.706 174.800,182.219 173.241,180.660 171.005 C 180.253 170.421,179.020 169.390,177.921 168.713 C 176.456 167.812,175.725 167.026,175.188 165.771 C 174.641 164.496,173.888 163.697,172.239 162.642 C 171.021 161.863,169.626 160.618,169.139 159.875 C 168.652 159.132,167.284 157.847,166.098 157.018 C 164.913 156.190,163.281 154.661,162.472 153.620 C 161.662 152.579,160.318 151.232,159.486 150.627 C 158.653 150.022,157.258 148.583,156.386 147.428 C 155.514 146.273,154.192 144.894,153.448 144.364 C 151.875 143.242,145.407 137.314,143.269 135.034 C 141.258 132.889,133.799 125.678,131.613 123.764 C 130.630 122.904,126.979 119.365,123.501 115.900 C 120.022 112.435,117.020 109.600,116.830 109.600 C 116.099 109.600,114.612 103.644,115.195 103.050 C 116.501 101.723,119.141 101.682,206.200 101.647 C 277.827 101.618,292.590 101.704,294.536 102.162 M107.432 112.194 C 110.489 112.778,112.400 113.876,112.400 115.047 C 112.400 115.943,114.232 117.722,116.245 118.779 C 117.508 119.444,118.439 120.284,118.875 121.156 C 119.765 122.934,121.581 124.800,122.421 124.800 C 123.488 124.800,125.200 126.373,125.200 127.354 C 125.200 128.466,126.896 130.130,129.229 131.307 C 130.554 131.975,131.263 132.702,132.044 134.193 C 132.840 135.712,133.525 136.404,134.921 137.100 C 136.735 138.005,138.400 139.670,138.400 140.579 C 138.400 141.094,140.312 142.628,142.200 143.626 C 142.870 143.980,143.761 145.000,144.219 145.935 C 145.253 148.049,145.969 148.760,148.096 149.781 C 149.375 150.396,150.061 151.098,150.847 152.598 C 151.695 154.217,152.329 154.823,154.194 155.798 C 156.020 156.751,156.725 157.414,157.607 159.000 C 158.441 160.501,159.203 161.249,160.659 162.000 C 162.169 162.778,162.822 163.440,163.600 164.981 C 164.429 166.623,164.984 167.149,166.848 168.064 C 168.681 168.963,169.250 169.494,169.930 170.940 C 170.868 172.935,172.293 174.225,173.967 174.593 C 174.810 174.778,175.281 175.268,175.822 176.520 C 176.729 178.618,177.927 180.000,178.839 180.000 C 179.843 180.000,182.021 181.952,182.621 183.389 C 183.258 184.912,184.204 185.784,186.451 186.918 C 187.720 187.558,188.448 188.292,189.104 189.594 C 189.714 190.802,190.496 191.633,191.504 192.141 C 193.619 193.207,194.355 193.941,195.424 196.049 C 195.981 197.147,196.927 198.232,197.752 198.718 C 199.857 199.960,200.538 201.310,200.784 204.721 C 201.036 208.223,200.788 208.084,205.905 207.601 C 210.323 207.184,209.893 206.926,218.361 215.051 C 223.990 220.453,224.682 221.158,226.155 222.995 C 226.790 223.787,227.892 224.679,228.605 224.976 C 229.317 225.274,230.238 226.010,230.650 226.613 C 231.063 227.215,232.281 228.538,233.358 229.554 C 235.435 231.513,237.538 233.613,238.200 234.389 C 238.420 234.647,239.925 236.150,241.545 237.729 C 243.165 239.308,244.965 241.107,245.545 241.728 C 246.125 242.348,247.272 243.205,248.093 243.632 C 248.940 244.073,249.895 245.011,250.300 245.802 C 250.935 247.039,254.797 250.400,255.583 250.400 C 255.750 250.400,256.555 251.483,257.372 252.806 C 258.375 254.432,259.351 255.465,260.378 255.989 C 261.215 256.416,262.549 257.668,263.341 258.771 C 264.270 260.064,265.468 261.125,266.710 261.754 C 268.023 262.420,268.886 263.207,269.418 264.227 C 270.434 266.172,271.660 267.401,273.413 268.233 C 274.387 268.695,275.069 269.434,275.604 270.608 C 276.504 272.584,278.199 274.140,280.155 274.785 C 281.186 275.125,281.731 275.666,282.331 276.942 C 283.247 278.891,283.860 279.481,286.130 280.600 C 287.305 281.179,288.045 281.952,288.812 283.400 C 289.450 284.605,290.419 285.718,291.250 286.200 C 293.693 287.617,294.289 288.178,295.052 289.777 C 295.569 290.862,296.320 291.606,297.486 292.190 C 301.008 293.954,301.397 294.668,301.797 300.112 C 302.106 304.307,301.217 306.469,298.717 307.603 C 296.823 308.463,118.284 308.864,114.631 308.017 C 110.771 307.122,109.463 304.919,110.295 300.716 C 111.538 294.436,111.108 293.728,106.477 294.437 C 102.797 295.000,102.619 294.930,100.846 292.206 L 99.800 290.600 99.800 203.400 C 99.800 119.038,99.824 116.154,100.547 114.800 C 102.339 111.440,102.727 111.293,107.432 112.194 M116.577 116.117 C 115.743 116.584,115.084 115.967,115.436 115.050 C 115.683 114.405,115.744 114.406,116.465 115.058 C 117.159 115.687,117.170 115.785,116.577 116.117 M122.738 122.438 C 122.056 122.860,121.585 122.504,121.864 121.777 C 122.045 121.307,122.216 121.281,122.666 121.654 C 123.113 122.026,123.129 122.197,122.738 122.438 M128.800 127.800 C 129.208 128.291,129.180 128.400,128.649 128.400 C 128.292 128.400,128.000 128.130,128.000 127.800 C 128.000 127.470,128.068 127.200,128.151 127.200 C 128.234 127.200,128.526 127.470,128.800 127.800 M397.500 149.082 C 397.995 149.178,398.805 149.178,399.300 149.082 C 399.795 148.987,399.390 148.909,398.400 148.909 C 397.410 148.909,397.005 148.987,397.500 149.082 M196.267 208.667 C 195.849 209.085,195.954 211.167,196.439 212.074 C 196.874 212.886,196.884 212.885,197.351 211.948 C 197.610 211.428,198.396 210.641,199.096 210.201 C 200.974 209.020,200.758 208.400,198.467 208.400 C 197.403 208.400,196.413 208.520,196.267 208.667 M190.230 215.167 C 189.556 215.912,189.899 218.400,190.675 218.400 C 191.159 218.400,193.582 215.423,193.312 215.160 C 192.499 214.369,190.949 214.373,190.230 215.167 M183.862 221.531 C 182.143 223.431,183.729 225.429,185.547 223.652 C 186.251 222.963,187.046 222.394,187.314 222.387 C 188.069 222.366,186.000 220.800,185.218 220.800 C 184.836 220.800,184.226 221.129,183.862 221.531 M177.239 227.359 C 176.333 228.323,176.526 229.679,177.675 230.433 C 178.395 230.905,180.976 228.002,180.358 227.415 C 179.252 226.366,178.189 226.347,177.239 227.359 M171.204 233.796 C 169.176 235.955,171.201 237.584,173.454 235.607 L 174.813 234.413 174.007 233.607 C 172.948 232.548,172.338 232.589,171.204 233.796 M164.476 240.119 C 162.732 241.976,164.728 243.433,166.916 241.901 C 167.622 241.407,168.274 240.958,168.364 240.904 C 168.455 240.849,168.202 240.444,167.802 240.002 C 166.842 238.941,165.540 238.987,164.476 240.119 M158.390 246.014 C 156.791 248.260,158.639 250.047,160.525 248.078 C 161.832 246.714,161.866 246.231,160.711 245.423 C 159.512 244.583,159.386 244.615,158.390 246.014 M0.905 251.487 C 1.514 251.579,2.414 251.577,2.905 251.482 C 3.397 251.387,2.900 251.311,1.800 251.314 C 0.700 251.317,0.297 251.395,0.905 251.487 M152.254 252.029 C 150.923 253.076,150.910 254.192,152.218 255.048 C 154.030 256.236,156.465 253.307,154.869 251.862 C 153.918 251.002,153.528 251.027,152.254 252.029 M145.700 258.270 C 144.328 259.227,144.743 261.200,146.317 261.200 C 147.050 261.200,148.997 259.656,149.010 259.064 C 149.039 257.749,147.110 257.286,145.700 258.270 M139.665 264.533 C 138.217 266.027,138.284 267.055,139.855 267.450 C 141.512 267.866,142.874 266.036,142.098 264.435 C 141.352 262.895,141.249 262.899,139.665 264.533 M133.783 270.309 C 132.057 271.769,131.824 272.342,132.607 273.208 C 133.551 274.251,134.464 274.209,135.530 273.074 C 137.337 271.151,135.752 268.644,133.783 270.309 M126.439 276.960 L 125.120 278.320 125.960 279.160 C 127.051 280.251,128.051 280.223,129.130 279.074 C 130.192 277.944,130.232 277.134,129.269 276.262 C 128.247 275.338,127.937 275.414,126.439 276.960 M120.678 283.120 C 119.061 284.776,119.154 285.413,121.094 285.970 C 123.508 286.662,125.055 283.207,122.858 282.031 C 122.267 281.715,121.844 281.926,120.678 283.120 M114.259 289.371 C 112.195 291.262,112.318 291.615,115.200 292.073 C 116.493 292.278,117.477 291.305,117.287 290.010 C 116.995 288.024,115.967 287.807,114.259 289.371 M109.600 297.600 C 109.600 298.942,109.025 299.127,107.931 298.138 C 106.745 297.064,106.883 296.893,109.300 296.454 C 109.465 296.425,109.600 296.940,109.600 297.600 " stroke="none" fill="#f7e29d" fill-rule="evenodd"></path><path id="path12" d="M99.581 18.623 C 99.154 19.137,99.163 19.224,99.632 19.123 C 99.951 19.054,100.146 19.249,100.077 19.568 C 99.976 20.037,100.063 20.046,100.577 19.619 C 101.330 18.994,101.369 18.766,100.700 18.900 C 100.425 18.955,100.245 18.775,100.300 18.500 C 100.434 17.831,100.206 17.870,99.581 18.623 M300.100 18.500 C 300.155 18.775,299.945 18.945,299.632 18.877 C 299.163 18.776,299.154 18.863,299.581 19.377 C 300.206 20.130,300.434 20.169,300.300 19.500 C 300.245 19.225,300.455 19.055,300.768 19.123 C 301.237 19.224,301.246 19.137,300.819 18.623 C 300.194 17.870,299.966 17.831,300.100 18.500 M18.381 99.823 C 17.954 100.337,17.963 100.424,18.432 100.323 C 18.751 100.254,18.946 100.449,18.877 100.768 C 18.776 101.237,18.863 101.246,19.377 100.819 C 20.130 100.194,20.169 99.966,19.500 100.100 C 19.225 100.155,19.045 99.975,19.100 99.700 C 19.234 99.031,19.006 99.070,18.381 99.823 M381.300 99.700 C 381.355 99.975,381.145 100.145,380.832 100.077 C 380.363 99.976,380.354 100.063,380.781 100.577 C 381.406 101.330,381.634 101.369,381.500 100.700 C 381.445 100.425,381.655 100.255,381.968 100.323 C 382.437 100.424,382.446 100.337,382.019 99.823 C 381.394 99.070,381.166 99.031,381.300 99.700 M18.900 299.700 C 18.955 299.975,18.745 300.145,18.432 300.077 C 17.963 299.976,17.954 300.063,18.381 300.577 C 19.006 301.330,19.234 301.369,19.100 300.700 C 19.045 300.425,19.255 300.255,19.568 300.323 C 20.037 300.424,20.046 300.337,19.619 299.823 C 18.994 299.070,18.766 299.031,18.900 299.700 M100.100 380.900 C 100.155 381.175,99.945 381.345,99.632 381.277 C 99.163 381.176,99.154 381.263,99.581 381.777 C 100.206 382.530,100.434 382.569,100.300 381.900 C 100.245 381.625,100.455 381.455,100.768 381.523 C 101.237 381.624,101.246 381.537,100.819 381.023 C 100.194 380.270,99.966 380.231,100.100 380.900 M299.581 381.023 C 299.154 381.537,299.163 381.624,299.632 381.523 C 299.951 381.454,300.146 381.649,300.077 381.968 C 299.976 382.437,300.063 382.446,300.577 382.019 C 301.330 381.394,301.369 381.166,300.700 381.300 C 300.425 381.355,300.245 381.175,300.300 380.900 C 300.434 380.231,300.206 380.270,299.581 381.023 " stroke="none" fill="#99ffff" fill-rule="evenodd"></path><path id="path13" d="M147.200 1.800 L 147.200 3.600 145.500 3.633 C 144.565 3.651,140.614 3.696,136.720 3.733 C 128.580 3.810,128.727 3.748,128.478 7.194 C 128.279 9.942,128.861 9.696,122.603 9.678 C 120.596 9.672,119.295 9.842,119.109 10.134 C 118.890 10.478,118.811 10.470,118.806 10.100 C 118.803 9.825,118.440 9.600,118.000 9.600 C 117.475 9.600,117.200 9.867,117.200 10.376 C 117.200 10.803,117.046 11.248,116.858 11.364 C 116.670 11.481,116.599 11.139,116.701 10.606 C 116.877 9.688,116.805 9.648,115.343 9.855 C 111.249 10.434,110.000 11.620,110.000 14.927 C 110.000 16.274,109.992 16.279,108.340 16.114 C 107.248 16.005,106.565 16.128,106.346 16.474 C 106.092 16.874,106.011 16.880,106.006 16.500 C 105.992 15.352,103.603 15.934,103.546 17.100 C 103.495 18.112,103.477 18.125,103.311 17.252 C 103.082 16.041,100.008 16.214,98.711 17.511 C 97.431 18.791,97.219 22.000,98.415 22.000 C 98.920 22.000,99.224 22.109,99.090 22.243 C 98.956 22.377,97.769 22.471,96.451 22.453 C 94.501 22.425,94.021 22.548,93.874 23.110 C 93.705 23.755,93.690 23.755,93.646 23.100 C 93.616 22.638,93.269 22.400,92.627 22.400 C 91.458 22.400,91.096 23.296,91.251 25.808 C 91.406 28.331,91.186 28.430,85.274 28.520 C 78.884 28.617,78.647 28.759,78.619 32.496 L 78.600 35.000 76.200 34.889 C 72.919 34.737,72.639 35.002,72.400 38.485 L 72.200 41.400 69.200 41.400 L 66.200 41.400 66.200 44.000 C 66.200 47.191,65.811 47.508,62.130 47.309 C 59.837 47.186,59.534 47.251,59.751 47.817 C 59.888 48.173,60.000 48.551,60.000 48.656 C 60.000 48.761,60.163 48.746,60.363 48.623 C 60.562 48.500,60.517 48.847,60.263 49.394 L 59.800 50.389 59.675 49.195 C 59.530 47.813,59.580 47.831,57.854 48.552 C 56.355 49.178,54.800 50.952,54.800 52.036 C 54.800 52.977,52.977 54.800,52.036 54.800 C 50.952 54.800,49.178 56.355,48.552 57.854 C 47.862 59.505,47.864 59.600,48.600 59.600 C 49.310 59.600,49.394 60.233,48.738 60.638 C 48.470 60.804,48.384 60.749,48.534 60.507 C 48.675 60.278,48.437 59.998,48.003 59.885 C 47.115 59.653,46.964 61.286,47.773 62.377 C 48.093 62.809,48.076 62.879,47.705 62.657 C 47.346 62.441,47.250 62.692,47.353 63.576 C 47.583 65.557,46.884 66.089,43.970 66.148 L 41.400 66.200 41.283 69.300 L 41.166 72.400 38.612 72.400 C 35.316 72.400,34.800 72.884,34.800 75.973 L 34.800 78.289 32.347 78.511 C 28.729 78.839,28.612 79.044,28.534 85.231 C 28.463 90.937,28.245 91.556,26.408 91.286 C 25.681 91.180,25.200 91.287,25.200 91.555 C 25.200 91.800,25.009 92.000,24.776 92.000 C 24.543 92.000,24.464 91.820,24.600 91.600 C 24.875 91.155,24.009 91.068,23.033 91.443 C 22.167 91.775,22.218 93.494,23.100 93.724 C 23.753 93.895,23.754 93.910,23.109 93.954 C 22.532 93.992,22.424 94.398,22.453 96.423 C 22.471 97.756,22.377 98.956,22.243 99.090 C 22.109 99.224,22.000 98.920,22.000 98.415 C 22.000 97.219,18.791 97.431,17.511 98.711 C 16.214 100.008,16.041 103.082,17.252 103.311 C 18.125 103.477,18.112 103.495,17.100 103.546 C 15.934 103.603,15.352 105.992,16.500 106.006 C 16.880 106.011,16.874 106.092,16.474 106.346 C 16.128 106.565,16.005 107.248,16.114 108.340 C 16.274 109.941,16.239 110.000,15.127 110.000 C 13.129 110.000,11.220 111.054,10.625 112.486 C 9.737 114.621,9.392 118.422,10.048 118.838 C 10.352 119.031,10.403 119.191,10.163 119.194 C 9.877 119.198,9.711 120.659,9.684 123.404 C 9.634 128.484,9.679 128.400,6.999 128.400 C 4.732 128.400,3.600 129.229,3.600 130.889 C 3.600 131.695,5.037 131.890,5.293 131.120 C 5.418 130.746,5.519 130.746,5.750 131.120 C 5.914 131.384,5.857 131.600,5.624 131.600 C 5.391 131.600,5.200 131.859,5.200 132.176 C 5.200 132.954,4.525 133.326,4.166 132.745 C 3.985 132.452,4.050 132.384,4.338 132.562 C 4.592 132.719,4.800 132.657,4.800 132.424 C 4.800 132.191,4.517 132.000,4.171 132.000 C 3.628 132.000,3.550 132.701,3.604 137.100 C 3.639 139.905,3.653 143.325,3.634 144.700 L 3.600 147.200 1.800 147.200 C -0.795 147.200,-0.710 148.300,1.900 148.506 L 3.800 148.656 1.900 148.728 L 0.000 148.800 0.000 199.978 L 0.000 251.156 1.900 251.306 L 3.800 251.456 1.900 251.528 C -0.874 251.633,-0.968 253.200,1.800 253.200 L 3.600 253.200 3.646 255.700 C 3.672 257.075,3.698 259.505,3.705 261.100 C 3.712 262.938,3.878 264.002,4.158 264.006 C 4.401 264.009,4.331 264.182,4.002 264.390 C 3.489 264.715,3.517 264.856,4.202 265.385 C 4.843 265.881,4.863 265.954,4.300 265.758 C 3.823 265.592,3.600 265.719,3.600 266.157 C 3.600 266.511,3.859 266.800,4.176 266.800 C 4.493 266.800,4.854 266.963,4.977 267.163 C 5.100 267.362,4.815 267.425,4.344 267.301 C 3.530 267.088,3.497 267.184,3.689 269.181 C 3.925 271.643,4.311 271.971,6.884 271.896 C 9.518 271.819,9.671 272.088,9.702 276.857 C 9.719 279.365,9.901 281.116,10.165 281.294 C 10.462 281.495,10.442 281.590,10.100 281.594 C 9.825 281.597,9.600 281.960,9.600 282.400 C 9.600 282.925,9.867 283.200,10.376 283.200 C 10.803 283.200,11.248 283.354,11.364 283.542 C 11.481 283.730,11.139 283.801,10.606 283.699 C 9.688 283.523,9.648 283.595,9.855 285.057 C 10.433 289.140,11.622 290.400,14.898 290.400 C 16.207 290.400,16.219 290.418,16.064 292.048 C 15.959 293.148,16.088 293.810,16.453 294.041 C 16.853 294.294,16.865 294.389,16.500 294.394 C 15.352 294.408,15.934 296.797,17.100 296.854 C 18.112 296.905,18.125 296.923,17.252 297.089 C 16.041 297.318,16.214 300.392,17.511 301.689 C 18.791 302.969,22.000 303.181,22.000 301.985 C 22.000 301.480,22.129 301.196,22.287 301.354 C 22.445 301.512,22.534 302.712,22.485 304.020 C 22.416 305.835,22.528 306.400,22.955 306.400 C 23.263 306.400,23.634 306.715,23.781 307.100 C 23.995 307.661,23.948 307.701,23.544 307.300 C 22.826 306.588,22.400 306.681,22.400 307.551 C 22.400 308.785,23.326 309.193,25.866 309.080 C 28.582 308.958,28.379 308.639,28.415 313.075 C 28.436 315.710,28.512 315.964,29.319 316.120 C 30.160 316.283,30.156 316.294,29.244 316.346 C 28.156 316.408,28.209 319.981,29.314 321.086 C 30.420 322.191,33.994 322.244,34.040 321.156 L 34.080 320.200 34.400 321.200 C 34.576 321.750,34.741 323.190,34.766 324.400 C 34.832 327.523,35.082 327.766,38.471 328.000 L 41.372 328.200 41.386 331.200 L 41.400 334.200 43.975 334.258 C 46.891 334.324,47.582 334.849,47.353 336.824 C 47.250 337.708,47.346 337.959,47.705 337.743 C 48.076 337.521,48.093 337.591,47.773 338.023 C 46.964 339.114,47.115 340.747,48.003 340.515 C 48.437 340.402,48.675 340.122,48.534 339.893 C 48.384 339.651,48.470 339.596,48.738 339.762 C 49.394 340.167,49.310 340.800,48.600 340.800 C 47.864 340.800,47.862 340.895,48.552 342.546 C 49.178 344.045,50.952 345.600,52.036 345.600 C 52.977 345.600,54.800 347.423,54.800 348.364 C 54.800 349.448,56.355 351.222,57.854 351.848 C 59.580 352.569,59.530 352.587,59.675 351.205 L 59.800 350.011 60.263 351.006 C 60.517 351.553,60.581 351.912,60.405 351.803 C 60.133 351.635,59.600 352.459,59.600 353.046 C 59.600 353.146,60.760 353.164,62.179 353.088 C 65.808 352.892,66.200 353.215,66.200 356.400 L 66.200 359.000 69.200 359.000 L 72.200 359.000 72.400 361.915 C 72.639 365.398,72.919 365.663,76.200 365.511 L 78.600 365.400 78.619 367.904 C 78.646 371.560,78.976 371.783,84.514 371.874 C 91.765 371.994,91.521 371.936,91.310 373.498 C 91.206 374.274,91.354 375.110,91.665 375.494 C 92.046 375.963,92.056 376.067,91.700 375.853 C 91.390 375.667,91.200 375.777,91.200 376.144 C 91.200 377.343,91.711 378.000,92.643 378.000 C 93.704 378.000,93.857 377.619,93.100 376.856 C 92.699 376.452,92.739 376.405,93.300 376.619 C 93.685 376.766,94.000 377.137,94.000 377.445 C 94.000 377.872,94.565 377.984,96.380 377.915 C 97.688 377.866,98.888 377.955,99.046 378.113 C 99.204 378.271,98.920 378.400,98.415 378.400 C 97.219 378.400,97.431 381.609,98.711 382.889 C 100.008 384.186,103.082 384.359,103.311 383.148 C 103.477 382.275,103.495 382.288,103.546 383.300 C 103.600 384.395,106.000 385.080,106.000 384.000 C 106.000 383.780,106.191 383.600,106.424 383.600 C 106.657 383.600,106.723 383.802,106.570 384.048 C 106.374 384.366,106.832 384.431,108.147 384.270 L 110.000 384.043 110.000 385.434 C 110.000 388.782,111.236 389.964,115.343 390.545 C 116.805 390.752,116.877 390.712,116.701 389.794 C 116.599 389.261,116.670 388.919,116.858 389.036 C 117.046 389.152,117.200 389.597,117.200 390.024 C 117.200 390.533,117.475 390.800,118.000 390.800 C 118.440 390.800,118.803 390.575,118.806 390.300 C 118.811 389.930,118.890 389.922,119.109 390.266 C 119.295 390.558,120.596 390.728,122.603 390.722 C 128.861 390.704,128.279 390.458,128.478 393.206 C 128.574 394.529,128.873 395.833,129.144 396.104 C 129.878 396.838,136.002 397.040,136.443 396.345 C 136.635 396.042,136.790 395.996,136.794 396.242 C 136.798 396.526,137.978 396.693,140.100 396.710 C 141.915 396.724,144.255 396.750,145.300 396.768 L 147.200 396.800 147.200 398.400 C 147.200 400.533,147.913 400.454,148.107 398.300 L 148.260 396.600 148.330 398.300 L 148.400 400.000 200.177 400.000 L 251.954 400.000 252.107 398.300 L 252.260 396.600 252.330 398.300 C 252.419 400.456,253.200 400.546,253.200 398.400 L 253.200 396.800 255.100 396.768 C 256.145 396.750,258.485 396.724,260.300 396.710 C 262.422 396.693,263.602 396.526,263.606 396.242 C 263.610 395.996,263.765 396.042,263.957 396.345 C 264.398 397.040,270.522 396.838,271.256 396.104 C 271.527 395.833,271.826 394.529,271.922 393.206 C 272.121 390.458,271.539 390.704,277.797 390.722 C 279.804 390.728,281.105 390.558,281.291 390.266 C 281.510 389.922,281.589 389.930,281.594 390.300 C 281.597 390.575,281.960 390.800,282.400 390.800 C 282.925 390.800,283.200 390.533,283.200 390.024 C 283.200 389.597,283.354 389.152,283.542 389.036 C 283.730 388.919,283.801 389.261,283.699 389.794 C 283.523 390.712,283.595 390.752,285.057 390.545 C 289.155 389.965,290.400 388.781,290.400 385.462 L 290.400 384.098 292.260 384.308 C 293.599 384.459,294.041 384.389,293.836 384.059 C 293.680 383.806,293.743 383.600,293.976 383.600 C 294.209 383.600,294.400 383.780,294.400 384.000 C 294.400 385.080,296.800 384.395,296.854 383.300 C 296.905 382.288,296.923 382.275,297.089 383.148 C 297.318 384.359,300.392 384.186,301.689 382.889 C 302.969 381.609,303.181 378.400,301.985 378.400 C 301.480 378.400,301.196 378.271,301.354 378.113 C 301.512 377.955,302.712 377.866,304.020 377.915 C 305.835 377.984,306.400 377.872,306.400 377.445 C 306.400 377.137,306.715 376.766,307.100 376.619 C 307.661 376.405,307.701 376.452,307.300 376.856 C 306.588 377.574,306.681 378.000,307.551 378.000 C 308.785 378.000,309.193 377.074,309.080 374.534 C 308.958 371.818,308.639 372.021,313.075 371.985 C 315.710 371.964,315.964 371.888,316.120 371.081 C 316.283 370.240,316.294 370.244,316.346 371.156 C 316.408 372.244,319.981 372.191,321.086 371.086 C 322.191 369.980,322.244 366.406,321.156 366.360 L 320.200 366.320 321.200 366.000 C 321.750 365.824,323.190 365.659,324.400 365.634 C 327.525 365.568,327.766 365.319,328.000 361.915 L 328.200 359.000 331.200 359.000 L 334.200 359.000 334.200 356.400 C 334.200 353.209,334.589 352.892,338.270 353.091 C 340.563 353.214,340.866 353.149,340.649 352.583 C 340.512 352.227,340.400 351.849,340.400 351.744 C 340.400 351.639,340.237 351.654,340.037 351.777 C 339.838 351.900,339.883 351.553,340.137 351.006 L 340.600 350.011 340.725 351.205 C 340.870 352.587,340.820 352.569,342.546 351.848 C 344.045 351.222,345.600 349.448,345.600 348.364 C 345.600 347.423,347.423 345.600,348.364 345.600 C 349.448 345.600,351.222 344.045,351.848 342.546 C 352.538 340.895,352.536 340.800,351.800 340.800 C 351.090 340.800,351.006 340.167,351.662 339.762 C 351.930 339.596,352.016 339.651,351.866 339.893 C 351.725 340.122,351.963 340.402,352.397 340.515 C 353.285 340.747,353.436 339.114,352.627 338.023 C 352.307 337.591,352.324 337.521,352.695 337.743 C 353.052 337.958,353.151 337.717,353.053 336.872 C 352.805 334.742,353.484 334.200,356.400 334.200 L 359.000 334.200 359.014 331.200 L 359.028 328.200 361.929 328.000 C 365.318 327.766,365.568 327.523,365.634 324.400 C 365.659 323.190,365.824 321.750,366.000 321.200 L 366.320 320.200 366.360 321.156 C 366.406 322.244,369.980 322.191,371.086 321.086 C 372.184 319.987,372.232 316.494,371.152 316.289 C 370.250 316.118,370.247 316.106,371.081 316.054 C 371.901 316.004,371.964 315.798,371.985 313.100 C 372.021 308.635,371.816 308.958,374.534 309.080 C 377.074 309.193,378.000 308.785,378.000 307.551 C 378.000 306.681,377.574 306.588,376.856 307.300 C 376.452 307.701,376.405 307.661,376.619 307.100 C 376.766 306.715,377.155 306.400,377.485 306.400 C 377.943 306.400,378.048 306.023,377.931 304.800 C 377.848 303.920,377.919 303.200,378.089 303.200 C 378.260 303.200,378.425 302.705,378.454 302.100 C 378.501 301.157,378.534 301.128,378.682 301.900 C 379.005 303.574,382.686 302.847,383.556 300.937 C 384.328 299.242,384.122 297.679,383.100 297.482 C 382.328 297.334,382.357 297.301,383.300 297.254 C 384.529 297.194,384.915 295.115,383.900 294.021 C 383.496 293.586,383.507 293.544,383.959 293.801 C 384.414 294.061,384.479 293.776,384.308 292.260 L 384.098 290.400 385.462 290.400 C 388.781 290.400,389.965 289.155,390.545 285.057 C 390.752 283.595,390.712 283.523,389.794 283.699 C 389.261 283.801,388.919 283.730,389.036 283.542 C 389.152 283.354,389.597 283.200,390.024 283.200 C 390.533 283.200,390.800 282.925,390.800 282.400 C 390.800 281.960,390.575 281.597,390.300 281.594 C 389.958 281.590,389.938 281.495,390.235 281.294 C 390.499 281.116,390.681 279.365,390.698 276.857 C 390.729 272.083,390.774 272.004,393.485 271.943 C 396.195 271.882,396.475 271.643,396.711 269.181 C 396.903 267.184,396.870 267.088,396.056 267.301 C 395.585 267.425,395.300 267.362,395.423 267.163 C 395.546 266.963,395.907 266.800,396.224 266.800 C 396.541 266.800,396.800 266.511,396.800 266.157 C 396.800 265.719,396.577 265.592,396.100 265.758 C 395.537 265.954,395.557 265.881,396.198 265.385 C 396.883 264.856,396.911 264.715,396.398 264.390 C 396.069 264.182,396.001 264.009,396.247 264.006 C 396.523 264.002,396.696 263.120,396.700 261.700 C 396.703 260.435,396.727 258.005,396.753 256.300 L 396.800 253.200 398.400 253.200 L 400.000 253.200 400.000 201.223 L 400.000 149.246 398.300 149.093 L 396.600 148.940 398.300 148.870 C 400.758 148.769,400.851 147.200,398.400 147.200 L 396.800 147.200 396.767 144.700 C 396.748 143.325,396.761 139.905,396.794 137.100 C 396.847 132.707,396.768 132.000,396.228 132.000 C 395.882 132.000,395.600 132.191,395.600 132.424 C 395.600 132.657,395.808 132.719,396.062 132.562 C 396.350 132.384,396.415 132.452,396.234 132.745 C 395.882 133.314,395.200 132.961,395.200 132.210 C 395.200 131.911,394.984 131.595,394.720 131.507 C 394.346 131.382,394.346 131.281,394.720 131.050 C 394.984 130.886,395.200 130.943,395.200 131.176 C 395.200 131.409,395.560 131.600,396.000 131.600 C 396.974 131.600,397.055 130.542,396.177 129.289 C 395.665 128.558,395.173 128.400,393.401 128.400 C 390.719 128.400,390.730 128.418,390.697 123.477 C 390.681 121.016,390.498 119.284,390.235 119.106 C 389.938 118.905,389.958 118.810,390.300 118.806 C 390.575 118.803,390.800 118.440,390.800 118.000 C 390.800 117.475,390.533 117.200,390.024 117.200 C 389.597 117.200,389.152 117.046,389.036 116.858 C 388.919 116.670,389.261 116.599,389.794 116.701 C 390.712 116.877,390.752 116.805,390.545 115.343 C 389.966 111.249,388.780 110.000,385.473 110.000 C 384.126 110.000,384.121 109.992,384.286 108.340 C 384.395 107.248,384.272 106.565,383.926 106.346 C 383.526 106.092,383.520 106.011,383.900 106.006 C 385.048 105.992,384.466 103.603,383.300 103.546 C 382.288 103.495,382.275 103.477,383.148 103.311 C 384.359 103.082,384.186 100.008,382.889 98.711 C 381.609 97.431,378.400 97.219,378.400 98.415 C 378.400 98.920,378.271 99.204,378.113 99.046 C 377.955 98.888,377.866 97.688,377.915 96.380 C 377.984 94.565,377.872 94.000,377.445 94.000 C 377.137 94.000,376.766 93.685,376.619 93.300 C 376.405 92.739,376.452 92.699,376.856 93.100 C 377.619 93.857,378.000 93.704,378.000 92.643 C 378.000 91.711,377.343 91.200,376.144 91.200 C 375.777 91.200,375.667 91.390,375.853 91.700 C 376.067 92.056,375.963 92.046,375.494 91.665 C 375.108 91.352,374.274 91.206,373.484 91.312 C 372.662 91.423,372.114 91.319,372.083 91.047 C 372.055 90.801,371.980 88.221,371.916 85.314 C 371.778 79.039,371.665 78.839,368.053 78.511 L 365.600 78.289 365.594 76.044 C 365.585 72.891,365.330 72.635,361.963 72.400 L 359.095 72.200 359.047 69.200 L 359.000 66.200 356.425 66.142 C 353.509 66.076,352.818 65.551,353.047 63.576 C 353.150 62.692,353.054 62.441,352.695 62.657 C 352.324 62.879,352.307 62.809,352.627 62.377 C 353.436 61.286,353.285 59.653,352.397 59.885 C 351.963 59.998,351.725 60.278,351.866 60.507 C 352.016 60.749,351.930 60.804,351.662 60.638 C 351.006 60.233,351.090 59.600,351.800 59.600 C 352.536 59.600,352.538 59.505,351.848 57.854 C 351.222 56.355,349.448 54.800,348.364 54.800 C 347.423 54.800,345.600 52.977,345.600 52.036 C 345.600 50.952,344.045 49.178,342.546 48.552 C 340.820 47.831,340.870 47.813,340.725 49.195 L 340.600 50.389 340.137 49.394 C 339.883 48.847,339.819 48.488,339.995 48.597 C 340.267 48.765,340.800 47.941,340.800 47.354 C 340.800 47.254,339.640 47.236,338.221 47.312 C 334.592 47.508,334.200 47.185,334.200 44.000 L 334.200 41.400 331.200 41.400 L 328.200 41.400 328.000 38.485 C 327.766 35.081,327.525 34.832,324.400 34.766 C 323.190 34.741,321.750 34.576,321.200 34.400 L 320.200 34.080 321.156 34.040 C 322.244 33.994,322.191 30.420,321.086 29.314 C 319.987 28.216,316.494 28.168,316.289 29.248 C 316.118 30.150,316.106 30.153,316.054 29.319 C 316.003 28.489,315.823 28.440,312.980 28.479 C 309.366 28.528,309.012 28.260,309.154 25.581 C 309.296 22.901,307.260 20.863,306.676 23.100 C 306.505 23.753,306.490 23.754,306.446 23.109 C 306.408 22.532,306.002 22.424,303.977 22.453 C 302.644 22.471,301.444 22.377,301.310 22.243 C 301.176 22.109,301.480 22.000,301.985 22.000 C 303.181 22.000,302.969 18.791,301.689 17.511 C 300.392 16.214,297.318 16.041,297.089 17.252 C 296.923 18.125,296.905 18.112,296.854 17.100 C 296.797 15.934,294.408 15.352,294.394 16.500 C 294.389 16.865,294.294 16.853,294.041 16.453 C 293.810 16.088,293.148 15.959,292.048 16.064 C 290.418 16.219,290.400 16.207,290.400 14.898 C 290.400 11.622,289.140 10.433,285.057 9.855 C 283.595 9.648,283.523 9.688,283.699 10.606 C 283.801 11.139,283.730 11.481,283.542 11.364 C 283.354 11.248,283.200 10.803,283.200 10.376 C 283.200 9.867,282.925 9.600,282.400 9.600 C 281.960 9.600,281.597 9.825,281.594 10.100 C 281.589 10.470,281.510 10.478,281.291 10.134 C 281.105 9.842,279.804 9.672,277.797 9.678 C 271.539 9.696,272.121 9.942,271.922 7.194 C 271.673 3.748,271.820 3.810,263.680 3.733 C 259.786 3.696,255.835 3.651,254.900 3.633 L 253.200 3.600 253.200 1.800 C 253.200 -0.593,252.484 -0.514,252.294 1.900 L 252.144 3.800 252.072 1.900 L 252.000 0.000 200.222 -0.000 L 148.444 -0.000 148.294 1.900 L 148.144 3.800 148.072 1.900 C 147.980 -0.517,147.200 -0.607,147.200 1.800 M100.300 18.500 C 100.245 18.775,100.425 18.955,100.700 18.900 C 101.369 18.766,101.330 18.994,100.577 19.619 C 100.063 20.046,99.976 20.037,100.077 19.568 C 100.146 19.249,99.951 19.054,99.632 19.123 C 99.163 19.224,99.154 19.137,99.581 18.623 C 100.206 17.870,100.434 17.831,100.300 18.500 M300.819 18.623 C 301.246 19.137,301.237 19.224,300.768 19.123 C 300.455 19.055,300.245 19.225,300.300 19.500 C 300.434 20.169,300.206 20.130,299.581 19.377 C 299.154 18.863,299.163 18.776,299.632 18.877 C 299.945 18.945,300.155 18.775,300.100 18.500 C 299.966 17.831,300.194 17.870,300.819 18.623 M317.919 29.911 C 317.468 30.466,317.505 30.510,318.200 30.251 C 318.844 30.011,318.902 30.051,318.497 30.459 C 318.092 30.868,317.859 30.828,317.297 30.256 C 316.742 29.692,316.722 29.573,317.200 29.673 C 317.530 29.743,317.751 29.562,317.690 29.270 C 317.630 28.979,317.773 28.860,318.010 29.006 C 318.306 29.189,318.278 29.469,317.919 29.911 M320.113 32.300 C 319.888 32.899,319.942 32.925,320.489 32.481 C 320.931 32.122,321.211 32.094,321.394 32.390 C 321.540 32.627,321.421 32.770,321.130 32.710 C 320.838 32.649,320.657 32.870,320.727 33.200 C 320.831 33.696,320.736 33.685,320.179 33.138 C 319.809 32.774,319.627 32.279,319.776 32.038 C 320.196 31.359,320.404 31.521,320.113 32.300 M297.667 98.812 C 303.172 100.341,303.405 111.061,297.993 113.804 C 296.365 114.628,295.807 115.185,295.211 116.574 C 294.482 118.275,294.058 118.693,291.200 120.529 C 290.430 121.023,289.487 122.089,289.105 122.896 C 288.441 124.299,285.943 126.400,284.938 126.400 C 284.437 126.400,283.349 127.670,281.877 129.973 C 281.395 130.728,280.010 131.926,278.800 132.634 C 277.133 133.610,276.358 134.392,275.600 135.861 C 274.902 137.215,274.149 138.021,273.105 138.530 C 272.283 138.932,271.203 139.794,270.705 140.445 C 268.487 143.347,267.492 144.380,266.675 144.625 C 265.637 144.937,263.200 147.166,263.200 147.804 C 263.200 148.356,261.160 150.343,259.969 150.950 C 259.484 151.198,258.335 152.476,257.416 153.791 C 256.303 155.384,255.022 156.618,253.576 157.485 C 252.383 158.202,250.948 159.464,250.387 160.290 C 249.826 161.116,248.606 162.303,247.675 162.928 C 246.744 163.553,245.491 164.722,244.891 165.525 C 243.728 167.082,239.166 171.595,238.753 171.598 C 238.617 171.599,238.030 172.320,237.447 173.200 C 236.865 174.080,236.091 174.800,235.728 174.800 C 235.364 174.800,231.812 178.096,227.834 182.125 C 223.855 186.153,218.046 191.733,214.924 194.525 L 209.248 199.600 206.224 199.600 L 203.200 199.600 203.195 200.700 C 203.192 201.305,203.099 202.160,202.989 202.600 C 202.631 204.036,203.332 204.401,207.112 204.750 C 211.126 205.121,212.473 205.733,213.538 207.674 C 214.750 209.880,215.564 210.693,216.814 210.943 C 218.346 211.249,220.268 213.113,220.633 214.649 C 221.021 216.275,221.841 217.081,223.410 217.375 C 224.925 217.660,226.262 219.210,226.645 221.126 C 226.819 221.994,227.281 222.506,228.342 223.007 C 232.298 224.873,232.599 225.102,233.115 226.629 C 233.811 228.690,234.235 229.125,236.017 229.605 C 237.627 230.038,239.600 231.986,239.600 233.142 C 239.600 234.321,240.689 235.440,242.307 235.925 C 244.243 236.505,245.121 237.445,245.766 239.632 C 246.227 241.193,246.416 241.366,248.134 241.802 C 250.490 242.401,251.484 243.299,252.073 245.365 C 252.711 247.598,252.971 247.861,254.835 248.159 C 257.053 248.514,258.400 249.928,258.400 251.902 C 258.400 253.666,258.958 254.400,260.300 254.400 C 262.435 254.400,264.800 256.626,264.800 258.636 C 264.800 259.507,265.945 260.371,267.120 260.387 C 267.626 260.394,268.545 260.662,269.164 260.981 C 270.227 261.531,270.607 262.197,271.453 264.993 C 271.703 265.819,272.181 266.297,273.007 266.546 C 275.951 267.436,276.453 267.981,277.454 271.374 C 277.744 272.354,278.125 272.631,279.764 273.049 C 282.180 273.665,283.274 274.706,283.819 276.906 C 284.112 278.092,284.471 278.632,285.019 278.716 C 288.457 279.243,289.948 280.727,290.482 284.156 C 290.566 284.694,291.173 285.058,292.583 285.416 C 294.855 285.992,295.870 287.029,296.218 289.129 C 296.618 291.540,296.673 291.600,298.498 291.600 C 302.055 291.600,302.994 293.818,302.745 301.638 C 302.566 307.305,302.147 308.161,299.373 308.542 C 296.649 308.915,114.569 308.813,112.282 308.437 C 109.705 308.013,106.560 304.943,106.164 302.463 C 105.906 300.849,104.736 299.600,103.482 299.600 C 102.494 299.600,98.869 295.329,98.321 293.520 C 97.534 290.922,97.554 115.417,98.341 112.805 C 99.752 108.123,104.880 105.870,106.895 109.046 C 107.275 109.646,109.070 110.095,109.958 109.813 C 110.596 109.611,110.607 109.353,110.103 106.378 C 109.355 101.963,110.521 100.075,114.797 98.774 C 116.381 98.292,295.930 98.330,297.667 98.812 M19.100 99.700 C 19.045 99.975,19.225 100.155,19.500 100.100 C 20.169 99.966,20.130 100.194,19.377 100.819 C 18.863 101.246,18.776 101.237,18.877 100.768 C 18.946 100.449,18.751 100.254,18.432 100.323 C 17.963 100.424,17.954 100.337,18.381 99.823 C 19.006 99.070,19.234 99.031,19.100 99.700 M382.019 99.823 C 382.446 100.337,382.437 100.424,381.968 100.323 C 381.655 100.255,381.445 100.425,381.500 100.700 C 381.634 101.369,381.406 101.330,380.781 100.577 C 380.354 100.063,380.363 99.976,380.832 100.077 C 381.145 100.145,381.355 99.975,381.300 99.700 C 381.166 99.031,381.394 99.070,382.019 99.823 M115.436 115.050 C 115.084 115.967,115.743 116.584,116.577 116.117 C 117.170 115.785,117.159 115.687,116.465 115.058 C 115.744 114.406,115.683 114.405,115.436 115.050 M121.864 121.777 C 121.585 122.504,122.056 122.860,122.738 122.438 C 123.129 122.197,123.113 122.026,122.666 121.654 C 122.216 121.281,122.045 121.307,121.864 121.777 M128.000 127.800 C 128.000 128.130,128.292 128.400,128.649 128.400 C 129.180 128.400,129.208 128.291,128.800 127.800 C 128.526 127.470,128.234 127.200,128.151 127.200 C 128.068 127.200,128.000 127.470,128.000 127.800 M108.100 296.682 C 107.009 296.892,106.966 297.264,107.931 298.138 C 109.025 299.127,109.600 298.942,109.600 297.600 C 109.600 296.940,109.465 296.425,109.300 296.454 C 109.135 296.484,108.595 296.587,108.100 296.682 M19.619 299.823 C 20.046 300.337,20.037 300.424,19.568 300.323 C 19.255 300.255,19.045 300.425,19.100 300.700 C 19.234 301.369,19.006 301.330,18.381 300.577 C 17.954 300.063,17.963 299.976,18.432 300.077 C 18.745 300.145,18.955 299.975,18.900 299.700 C 18.766 299.031,18.994 299.070,19.619 299.823 M30.459 318.497 C 30.051 318.902,30.011 318.844,30.251 318.200 C 30.510 317.505,30.466 317.468,29.911 317.919 C 29.469 318.278,29.189 318.306,29.006 318.010 C 28.860 317.773,28.979 317.630,29.270 317.690 C 29.562 317.751,29.743 317.530,29.673 317.200 C 29.573 316.722,29.692 316.742,30.256 317.297 C 30.828 317.859,30.868 318.092,30.459 318.497 M370.700 317.300 C 370.645 317.575,370.838 317.751,371.130 317.690 C 371.421 317.630,371.540 317.773,371.394 318.010 C 371.211 318.306,370.931 318.278,370.489 317.919 C 369.934 317.468,369.890 317.505,370.149 318.200 C 370.383 318.827,370.342 318.896,369.961 318.517 C 369.578 318.138,369.584 317.901,369.986 317.417 C 370.606 316.670,370.834 316.632,370.700 317.300 M33.219 320.223 C 33.646 320.737,33.637 320.824,33.168 320.723 C 32.855 320.655,32.649 320.838,32.710 321.130 C 32.770 321.421,32.627 321.540,32.390 321.394 C 32.094 321.211,32.122 320.931,32.481 320.489 C 32.927 319.941,32.898 319.888,32.279 320.121 C 31.846 320.283,31.656 320.233,31.803 319.995 C 32.152 319.430,32.624 319.506,33.219 320.223 M368.597 319.995 C 368.744 320.233,368.554 320.283,368.121 320.121 C 367.502 319.888,367.473 319.941,367.919 320.489 C 368.278 320.931,368.306 321.211,368.010 321.394 C 367.773 321.540,367.630 321.421,367.690 321.130 C 367.751 320.838,367.545 320.655,367.232 320.723 C 366.763 320.824,366.754 320.737,367.181 320.223 C 367.776 319.506,368.248 319.430,368.597 319.995 M320.700 367.300 C 320.645 367.575,320.838 367.751,321.130 367.690 C 321.421 367.630,321.540 367.773,321.394 368.010 C 321.211 368.306,320.931 368.278,320.489 367.919 C 319.934 367.468,319.890 367.505,320.149 368.200 C 320.383 368.827,320.342 368.896,319.961 368.517 C 319.578 368.138,319.584 367.901,319.986 367.417 C 320.606 366.670,320.834 366.632,320.700 367.300 M318.597 369.995 C 318.744 370.233,318.554 370.283,318.121 370.121 C 317.502 369.888,317.473 369.941,317.919 370.489 C 318.278 370.931,318.306 371.211,318.010 371.394 C 317.773 371.540,317.630 371.421,317.690 371.130 C 317.751 370.838,317.545 370.655,317.232 370.723 C 316.763 370.824,316.754 370.737,317.181 370.223 C 317.776 369.506,318.248 369.430,318.597 369.995 M100.819 381.023 C 101.246 381.537,101.237 381.624,100.768 381.523 C 100.455 381.455,100.245 381.625,100.300 381.900 C 100.434 382.569,100.206 382.530,99.581 381.777 C 99.154 381.263,99.163 381.176,99.632 381.277 C 99.945 381.345,100.155 381.175,100.100 380.900 C 99.966 380.231,100.194 380.270,100.819 381.023 M300.300 380.900 C 300.245 381.175,300.425 381.355,300.700 381.300 C 301.369 381.166,301.330 381.394,300.577 382.019 C 300.063 382.446,299.976 382.437,300.077 381.968 C 300.146 381.649,299.951 381.454,299.632 381.523 C 299.163 381.624,299.154 381.537,299.581 381.023 C 300.206 380.270,300.434 380.231,300.300 380.900 " stroke="none" fill="#f6f8fc" fill-rule="evenodd"></path></g></svg>